solid OpenSCAD_Model
  facet normal 0.951056 0.309018 0
    outer loop
      vertex 78.2518 16.6329 12
      vertex 73.0836 32.5389 0
      vertex 73.0836 32.5389 12
    endloop
  endfacet
  facet normal 0.951056 0.309018 0
    outer loop
      vertex 73.0836 32.5389 0
      vertex 78.2518 16.6329 12
      vertex 78.2518 16.6329 0
    endloop
  endfacet
  facet normal 0.994522 0.104531 0
    outer loop
      vertex 79.5796 4 12
      vertex 78.2518 16.6329 0
      vertex 78.2518 16.6329 12
    endloop
  endfacet
  facet normal 0.994522 0.104531 0
    outer loop
      vertex 78.2518 16.6329 0
      vertex 79.5796 4 12
      vertex 79.5796 4 0
    endloop
  endfacet
  facet normal 0.866027 0.499997 0
    outer loop
      vertex 71.0726 36.0221 12
      vertex 64.7214 47.0228 0
      vertex 64.7214 47.0228 12
    endloop
  endfacet
  facet normal 0.866027 0.499997 0
    outer loop
      vertex 64.7214 47.0228 0
      vertex 71.0726 36.0221 12
      vertex 71.0726 36.0221 0
    endloop
  endfacet
  facet normal -0.406738 0.913545 0
    outer loop
      vertex -24.7214 76.0845 0
      vertex -40 69.282 12
      vertex -24.7214 76.0845 12
    endloop
  endfacet
  facet normal -0.406738 0.913545 0
    outer loop
      vertex -40 69.282 12
      vertex -24.7214 76.0845 0
      vertex -40 69.282 0
    endloop
  endfacet
  facet normal -0.743142 -0.669133 0
    outer loop
      vertex -53.5304 -59.4516 0
      vertex -62.0301 -50.0118 12
      vertex -62.0301 -50.0118 0
    endloop
  endfacet
  facet normal -0.743142 -0.669133 0
    outer loop
      vertex -62.0301 -50.0118 12
      vertex -53.5304 -59.4516 0
      vertex -53.5304 -59.4516 12
    endloop
  endfacet
  facet normal 0.994522 -0.104529 0
    outer loop
      vertex 78.2518 -16.6329 12
      vertex 80 0 0
      vertex 80 0 12
    endloop
  endfacet
  facet normal 0.994522 -0.104529 0
    outer loop
      vertex 80 0 0
      vertex 78.2518 -16.6329 12
      vertex 78.2518 -16.6329 0
    endloop
  endfacet
  facet normal -0.743143 0.669133 0
    outer loop
      vertex -64.7214 47.0228 0
      vertex -53.5304 59.4516 12
      vertex -53.5304 59.4516 0
    endloop
  endfacet
  facet normal -0.743143 0.669133 0
    outer loop
      vertex -53.5304 59.4516 12
      vertex -64.7214 47.0228 0
      vertex -64.7214 47.0228 12
    endloop
  endfacet
  facet normal 0.951057 -0.309015 0
    outer loop
      vertex 74.3265 -28.7138 12
      vertex 78.2518 -16.6329 0
      vertex 78.2518 -16.6329 12
    endloop
  endfacet
  facet normal 0.951057 -0.309015 0
    outer loop
      vertex 78.2518 -16.6329 0
      vertex 74.3265 -28.7138 12
      vertex 74.3265 -28.7138 0
    endloop
  endfacet
  facet normal 0.406738 0.913545 -0
    outer loop
      vertex 40 69.282 0
      vertex 24.7214 76.0845 12
      vertex 40 69.282 12
    endloop
  endfacet
  facet normal 0.406738 0.913545 0
    outer loop
      vertex 24.7214 76.0845 12
      vertex 40 69.282 0
      vertex 24.7214 76.0845 0
    endloop
  endfacet
  facet normal -0.587785 0.809018 0
    outer loop
      vertex -43.2539 66.9179 0
      vertex -53.5304 59.4516 12
      vertex -43.2539 66.9179 12
    endloop
  endfacet
  facet normal -0.587785 0.809018 0
    outer loop
      vertex -53.5304 59.4516 12
      vertex -43.2539 66.9179 0
      vertex -53.5304 59.4516 0
    endloop
  endfacet
  facet normal 0 0 1
    outer loop
      vertex 83 4 12
      vertex 80 0 12
      vertex 83 0 12
    endloop
  endfacet
  facet normal -0 0 1
    outer loop
      vertex 79.5796 4 12
      vertex 80 0 12
      vertex 83 4 12
    endloop
  endfacet
  facet normal 0 0 1
    outer loop
      vertex 79.5796 4 12
      vertex 78.2518 -16.6329 12
      vertex 80 0 12
    endloop
  endfacet
  facet normal 0 0 1
    outer loop
      vertex 71.0726 36.0221 12
      vertex 79.5796 4 12
      vertex 78.2518 16.6329 12
    endloop
  endfacet
  facet normal 0 0 1
    outer loop
      vertex 79.5796 4 12
      vertex 74.3265 -28.7138 12
      vertex 78.2518 -16.6329 12
    endloop
  endfacet
  facet normal 0 0 1
    outer loop
      vertex 71.0726 36.0221 12
      vertex 78.2518 16.6329 12
      vertex 73.0836 32.5389 12
    endloop
  endfacet
  facet normal 0 0 1
    outer loop
      vertex 73.0836 -32.5389 12
      vertex 77.4512 -30.105 12
      vertex 74.3265 -28.7138 12
    endloop
  endfacet
  facet normal 0 0 1
    outer loop
      vertex 77.4512 -30.105 12
      vertex 73.0836 -32.5389 12
      vertex 75.8243 -33.7591 12
    endloop
  endfacet
  facet normal 0 0 1
    outer loop
      vertex 79.5796 4 12
      vertex 71.0726 36.0221 12
      vertex 74.3265 -28.7138 12
    endloop
  endfacet
  facet normal -0 0 1
    outer loop
      vertex -80 0 12
      vertex -77.0089 -20.4581 12
      vertex -78.6722 12.6329 12
    endloop
  endfacet
  facet normal 0 0 1
    outer loop
      vertex -82.0179 13.3441 12
      vertex -78.2518 16.6329 12
      vertex -81.1862 17.2567 12
    endloop
  endfacet
  facet normal 0 0 1
    outer loop
      vertex -78.2518 16.6329 12
      vertex -82.0179 13.3441 12
      vertex -78.6722 12.6329 12
    endloop
  endfacet
  facet normal -0 0 1
    outer loop
      vertex -77.0089 -20.4581 12
      vertex -62.0301 -50.0118 12
      vertex -66.7324 43.5396 12
    endloop
  endfacet
  facet normal 0 0 1
    outer loop
      vertex -69.4995 45.5501 12
      vertex -64.7214 47.0228 12
      vertex -67.1484 48.7862 12
    endloop
  endfacet
  facet normal 0 0 1
    outer loop
      vertex -64.7214 47.0228 12
      vertex -69.4995 45.5501 12
      vertex -66.7324 43.5396 12
    endloop
  endfacet
  facet normal 0 0 1
    outer loop
      vertex -40 69.282 12
      vertex -44.9641 69.8801 12
      vertex -43.2539 66.9179 12
    endloop
  endfacet
  facet normal -0 0 1
    outer loop
      vertex -44.9641 69.8801 12
      vertex -40 69.282 12
      vertex -41.5 71.8801 12
    endloop
  endfacet
  facet normal 0 0 1
    outer loop
      vertex -40 69.282 12
      vertex -43.2539 66.9179 12
      vertex -40 -69.282 12
    endloop
  endfacet
  facet normal 0 0 1
    outer loop
      vertex -66.7324 43.5396 12
      vertex -53.5304 59.4516 12
      vertex -64.7214 47.0228 12
    endloop
  endfacet
  facet normal 0 0 1
    outer loop
      vertex -43.2539 66.9179 12
      vertex -62.0301 -50.0118 12
      vertex -40 -69.282 12
    endloop
  endfacet
  facet normal 0 0 1
    outer loop
      vertex -40 -69.282 12
      vertex -62.0301 -50.0118 12
      vertex -53.5304 -59.4516 12
    endloop
  endfacet
  facet normal -0 0 1
    outer loop
      vertex -53.5304 59.4516 12
      vertex -66.7324 43.5396 12
      vertex -43.2539 66.9179 12
    endloop
  endfacet
  facet normal 0 0 1
    outer loop
      vertex -43.2539 66.9179 12
      vertex -66.7324 43.5396 12
      vertex -62.0301 -50.0118 12
    endloop
  endfacet
  facet normal 0 0 1
    outer loop
      vertex -64.7214 -47.0228 12
      vertex -64.7973 -52.0222 12
      vertex -62.0301 -50.0118 12
    endloop
  endfacet
  facet normal 0 -0 1
    outer loop
      vertex -64.7973 -52.0222 12
      vertex -64.7214 -47.0228 12
      vertex -67.1484 -48.7862 12
    endloop
  endfacet
  facet normal 0 0 1
    outer loop
      vertex -8.36228 79.5618 12
      vertex -12.6539 82.1272 12
      vertex -12.2964 78.7255 12
    endloop
  endfacet
  facet normal -0 0 1
    outer loop
      vertex -12.6539 82.1272 12
      vertex -8.36228 79.5618 12
      vertex -8.67586 82.5453 12
    endloop
  endfacet
  facet normal -0 0 1
    outer loop
      vertex -40 69.282 12
      vertex -3.75278 6.5 12
      vertex -24.7214 76.0845 12
    endloop
  endfacet
  facet normal 0 0 1
    outer loop
      vertex -3.75278 6.5 12
      vertex -40 69.282 12
      vertex -7.50555 0 12
    endloop
  endfacet
  facet normal 0 -0 1
    outer loop
      vertex -24.7214 -76.0845 12
      vertex -7.50555 0 12
      vertex -36.3257 -70.9179 12
    endloop
  endfacet
  facet normal 0 0 1
    outer loop
      vertex -7.50555 0 12
      vertex -24.7214 -76.0845 12
      vertex -8.36228 -79.5618 12
    endloop
  endfacet
  facet normal 0 0 1
    outer loop
      vertex -40 -69.282 12
      vertex -7.50555 0 12
      vertex -40 69.282 12
    endloop
  endfacet
  facet normal 0 0 1
    outer loop
      vertex -7.50555 0 12
      vertex -40 -69.282 12
      vertex -36.3257 -70.9179 12
    endloop
  endfacet
  facet normal 0 0 1
    outer loop
      vertex -36.3257 -70.9179 12
      vertex -40 -69.282 12
      vertex -38.0359 -73.8801 12
    endloop
  endfacet
  facet normal 0 0 1
    outer loop
      vertex -38.0359 -73.8801 12
      vertex -40 -69.282 12
      vertex -41.5 -71.8801 12
    endloop
  endfacet
  facet normal 0 0 1
    outer loop
      vertex -78.6722 12.6329 12
      vertex -73.0836 32.5389 12
      vertex -78.2518 16.6329 12
    endloop
  endfacet
  facet normal -0 -0 1
    outer loop
      vertex -73.0836 -32.5389 12
      vertex -62.0301 -50.0118 12
      vertex -77.0089 -20.4581 12
    endloop
  endfacet
  facet normal 0 0 1
    outer loop
      vertex -62.0301 -50.0118 12
      vertex -73.0836 -32.5389 12
      vertex -64.7214 -47.0228 12
    endloop
  endfacet
  facet normal -0 0 1
    outer loop
      vertex -73.0836 32.5389 12
      vertex -78.6722 12.6329 12
      vertex -66.7324 43.5396 12
    endloop
  endfacet
  facet normal 0 0 1
    outer loop
      vertex -66.7324 43.5396 12
      vertex -78.6722 12.6329 12
      vertex -77.0089 -20.4581 12
    endloop
  endfacet
  facet normal 0 0 1
    outer loop
      vertex -78.2518 -16.6329 12
      vertex -80.3546 -21.1693 12
      vertex -77.0089 -20.4581 12
    endloop
  endfacet
  facet normal 0 -0 1
    outer loop
      vertex -80.3546 -21.1693 12
      vertex -78.2518 -16.6329 12
      vertex -81.1862 -17.2567 12
    endloop
  endfacet
  facet normal 0 0 1
    outer loop
      vertex -77.0089 -20.4581 12
      vertex -80 0 12
      vertex -78.2518 -16.6329 12
    endloop
  endfacet
  facet normal 0 0 1
    outer loop
      vertex 21.8442 80.1738 12
      vertex 24.7214 76.0845 12
      vertex 25.6484 78.9377 12
    endloop
  endfacet
  facet normal -0 0 1
    outer loop
      vertex 20.7872 76.9207 12
      vertex 24.7214 76.0845 12
      vertex 21.8442 80.1738 12
    endloop
  endfacet
  facet normal 0 0 1
    outer loop
      vertex 3.75278 6.5 12
      vertex 24.7214 76.0845 12
      vertex 20.7872 76.9207 12
    endloop
  endfacet
  facet normal 0 0 1
    outer loop
      vertex 3.75278 6.5 12
      vertex 20.7872 76.9207 12
      vertex 8.36228 79.5618 12
    endloop
  endfacet
  facet normal 0 0 1
    outer loop
      vertex 24.7214 76.0845 12
      vertex 7.50555 0 12
      vertex 24.7214 -76.0845 12
    endloop
  endfacet
  facet normal -0 0 1
    outer loop
      vertex 3.75278 -6.5 12
      vertex 24.7214 -76.0845 12
      vertex 7.50555 0 12
    endloop
  endfacet
  facet normal 0 0 1
    outer loop
      vertex 24.7214 76.0845 12
      vertex 3.75278 6.5 12
      vertex 7.50555 0 12
    endloop
  endfacet
  facet normal 0 0 1
    outer loop
      vertex 8.36228 79.5618 12
      vertex -3.75278 6.5 12
      vertex 3.75278 6.5 12
    endloop
  endfacet
  facet normal -0 0 1
    outer loop
      vertex -8.36228 79.5618 12
      vertex -3.75278 6.5 12
      vertex 8.36228 79.5618 12
    endloop
  endfacet
  facet normal -0 0 1
    outer loop
      vertex -12.2964 78.7255 12
      vertex -3.75278 6.5 12
      vertex -8.36228 79.5618 12
    endloop
  endfacet
  facet normal 0 0 1
    outer loop
      vertex 52.5653 64.3575 12
      vertex 53.5304 59.4516 12
      vertex 55.5378 61.681 12
    endloop
  endfacet
  facet normal -0 0 1
    outer loop
      vertex 50.2766 61.8157 12
      vertex 53.5304 59.4516 12
      vertex 52.5653 64.3575 12
    endloop
  endfacet
  facet normal 0 0 1
    outer loop
      vertex 53.5304 59.4516 12
      vertex 50.2766 61.8157 12
      vertex 53.5304 -59.4516 12
    endloop
  endfacet
  facet normal 0 0 1
    outer loop
      vertex 24.7214 76.0845 12
      vertex 50.2766 61.8157 12
      vertex 40 69.282 12
    endloop
  endfacet
  facet normal 0 0 1
    outer loop
      vertex 50.2766 61.8157 12
      vertex 28.3957 -74.4486 12
      vertex 53.5304 -59.4516 12
    endloop
  endfacet
  facet normal 0 0 1
    outer loop
      vertex 53.5304 -59.4516 12
      vertex 28.3957 -74.4486 12
      vertex 40 -69.282 12
    endloop
  endfacet
  facet normal 0 0 1
    outer loop
      vertex 50.2766 61.8157 12
      vertex 24.7214 76.0845 12
      vertex 28.3957 -74.4486 12
    endloop
  endfacet
  facet normal 0 0 1
    outer loop
      vertex 28.3957 -74.4486 12
      vertex 24.7214 76.0845 12
      vertex 24.7214 -76.0845 12
    endloop
  endfacet
  facet normal 0 0 1
    outer loop
      vertex 28.3957 -74.4486 12
      vertex 24.7214 -76.0845 12
      vertex 25.6484 -78.9377 12
    endloop
  endfacet
  facet normal 0 0 1
    outer loop
      vertex 74.1973 37.4133 12
      vertex 73.0836 32.5389 12
      vertex 75.8243 33.7591 12
    endloop
  endfacet
  facet normal -0 0 1
    outer loop
      vertex 71.0726 36.0221 12
      vertex 73.0836 32.5389 12
      vertex 74.1973 37.4133 12
    endloop
  endfacet
  facet normal 0 0 1
    outer loop
      vertex 56.2217 -56.4626 12
      vertex 74.3265 -28.7138 12
      vertex 71.0726 36.0221 12
    endloop
  endfacet
  facet normal 0 0 1
    outer loop
      vertex 53.5304 59.4516 12
      vertex 71.0726 36.0221 12
      vertex 64.7214 47.0228 12
    endloop
  endfacet
  facet normal 0 -0 1
    outer loop
      vertex 64.7214 -47.0228 12
      vertex 74.3265 -28.7138 12
      vertex 56.2217 -56.4626 12
    endloop
  endfacet
  facet normal 0 0 1
    outer loop
      vertex 74.3265 -28.7138 12
      vertex 64.7214 -47.0228 12
      vertex 73.0836 -32.5389 12
    endloop
  endfacet
  facet normal 0 0 1
    outer loop
      vertex 71.0726 36.0221 12
      vertex 53.5304 59.4516 12
      vertex 56.2217 -56.4626 12
    endloop
  endfacet
  facet normal 0 0 1
    outer loop
      vertex 56.2217 -56.4626 12
      vertex 53.5304 59.4516 12
      vertex 53.5304 -59.4516 12
    endloop
  endfacet
  facet normal 0 0 1
    outer loop
      vertex 56.2217 -56.4626 12
      vertex 53.5304 -59.4516 12
      vertex 55.5378 -61.681 12
    endloop
  endfacet
  facet normal 0 0 1
    outer loop
      vertex 58.5104 -59.0045 12
      vertex 56.2217 -56.4626 12
      vertex 55.5378 -61.681 12
    endloop
  endfacet
  facet normal 0 0 1
    outer loop
      vertex 29.4526 -77.7016 12
      vertex 28.3957 -74.4486 12
      vertex 25.6484 -78.9377 12
    endloop
  endfacet
  facet normal 0 0 1
    outer loop
      vertex 24.7214 -76.0845 12
      vertex 3.75278 -6.5 12
      vertex 8.36228 -79.5618 12
    endloop
  endfacet
  facet normal 0 0 1
    outer loop
      vertex -4.34024 -79.5618 12
      vertex 3.75278 -6.5 12
      vertex -3.75278 -6.5 12
    endloop
  endfacet
  facet normal 0 0 1
    outer loop
      vertex 3.75278 -6.5 12
      vertex -4.34024 -79.5618 12
      vertex 8.36228 -79.5618 12
    endloop
  endfacet
  facet normal 0 0 1
    outer loop
      vertex -8.36228 -79.5618 12
      vertex -4.34024 -79.5618 12
      vertex -3.75278 -6.5 12
    endloop
  endfacet
  facet normal 0 0 1
    outer loop
      vertex -8.36228 -79.5618 12
      vertex -3.75278 -6.5 12
      vertex -7.50555 0 12
    endloop
  endfacet
  facet normal -0 0 1
    outer loop
      vertex -24.7214 76.0845 12
      vertex -3.75278 6.5 12
      vertex -12.2964 78.7255 12
    endloop
  endfacet
  facet normal 0 0 1
    outer loop
      vertex -4.34024 -79.5618 12
      vertex -8.36228 -79.5618 12
      vertex -4.69777 -82.9634 12
    endloop
  endfacet
  facet normal 0 0 1
    outer loop
      vertex -4.69777 -82.9634 12
      vertex -8.36228 -79.5618 12
      vertex -8.67586 -82.5453 12
    endloop
  endfacet
  facet normal 0 1 -0
    outer loop
      vertex 8.36228 79.5618 0
      vertex -8.36228 79.5618 12
      vertex 8.36228 79.5618 12
    endloop
  endfacet
  facet normal 0 1 0
    outer loop
      vertex -8.36228 79.5618 12
      vertex 8.36228 79.5618 0
      vertex -8.36228 79.5618 0
    endloop
  endfacet
  facet normal 0.866028 -0.499996 0
    outer loop
      vertex 64.7214 -47.0228 12
      vertex 73.0836 -32.5389 0
      vertex 73.0836 -32.5389 12
    endloop
  endfacet
  facet normal 0.866028 -0.499996 0
    outer loop
      vertex 73.0836 -32.5389 0
      vertex 64.7214 -47.0228 12
      vertex 64.7214 -47.0228 0
    endloop
  endfacet
  facet normal -0.406739 -0.913544 0
    outer loop
      vertex -36.3257 -70.9179 0
      vertex -24.7214 -76.0845 12
      vertex -36.3257 -70.9179 12
    endloop
  endfacet
  facet normal -0.406739 -0.913544 -0
    outer loop
      vertex -24.7214 -76.0845 12
      vertex -36.3257 -70.9179 0
      vertex -24.7214 -76.0845 0
    endloop
  endfacet
  facet normal 0.743143 0.669133 0
    outer loop
      vertex 64.7214 47.0228 12
      vertex 53.5304 59.4516 0
      vertex 53.5304 59.4516 12
    endloop
  endfacet
  facet normal 0.743143 0.669133 0
    outer loop
      vertex 53.5304 59.4516 0
      vertex 64.7214 47.0228 12
      vertex 64.7214 47.0228 0
    endloop
  endfacet
  facet normal 0.207919 0.978146 -0
    outer loop
      vertex 20.7872 76.9207 0
      vertex 8.36228 79.5618 12
      vertex 20.7872 76.9207 12
    endloop
  endfacet
  facet normal 0.207919 0.978146 0
    outer loop
      vertex 8.36228 79.5618 12
      vertex 20.7872 76.9207 0
      vertex 8.36228 79.5618 0
    endloop
  endfacet
  facet normal -0.207911 0.978148 0
    outer loop
      vertex -12.2964 78.7255 0
      vertex -24.7214 76.0845 12
      vertex -12.2964 78.7255 12
    endloop
  endfacet
  facet normal -0.207911 0.978148 0
    outer loop
      vertex -24.7214 76.0845 12
      vertex -12.2964 78.7255 0
      vertex -24.7214 76.0845 0
    endloop
  endfacet
  facet normal 0.207915 -0.978147 0
    outer loop
      vertex 8.36228 -79.5618 0
      vertex 24.7214 -76.0845 12
      vertex 8.36228 -79.5618 12
    endloop
  endfacet
  facet normal 0.207915 -0.978147 0
    outer loop
      vertex 24.7214 -76.0845 12
      vertex 8.36228 -79.5618 0
      vertex 24.7214 -76.0845 0
    endloop
  endfacet
  facet normal -0.207915 -0.978147 0
    outer loop
      vertex -24.7214 -76.0845 0
      vertex -8.36228 -79.5618 12
      vertex -24.7214 -76.0845 12
    endloop
  endfacet
  facet normal -0.207915 -0.978147 -0
    outer loop
      vertex -8.36228 -79.5618 12
      vertex -24.7214 -76.0845 0
      vertex -8.36228 -79.5618 0
    endloop
  endfacet
  facet normal 0.406739 -0.913544 0
    outer loop
      vertex 28.3957 -74.4486 0
      vertex 40 -69.282 12
      vertex 28.3957 -74.4486 12
    endloop
  endfacet
  facet normal 0.406739 -0.913544 0
    outer loop
      vertex 40 -69.282 12
      vertex 28.3957 -74.4486 0
      vertex 40 -69.282 0
    endloop
  endfacet
  facet normal -0.994522 0.104531 0
    outer loop
      vertex -80 0 0
      vertex -78.6722 12.6329 12
      vertex -78.6722 12.6329 0
    endloop
  endfacet
  facet normal -0.994522 0.104531 0
    outer loop
      vertex -78.6722 12.6329 12
      vertex -80 0 0
      vertex -80 0 12
    endloop
  endfacet
  facet normal -0.951056 0.309018 0
    outer loop
      vertex -78.2518 16.6329 0
      vertex -73.0836 32.5389 12
      vertex -73.0836 32.5389 0
    endloop
  endfacet
  facet normal -0.951056 0.309018 0
    outer loop
      vertex -73.0836 32.5389 12
      vertex -78.2518 16.6329 0
      vertex -78.2518 16.6329 12
    endloop
  endfacet
  facet normal -0.587785 -0.809017 0
    outer loop
      vertex -53.5304 -59.4516 0
      vertex -40 -69.282 12
      vertex -53.5304 -59.4516 12
    endloop
  endfacet
  facet normal -0.587785 -0.809017 -0
    outer loop
      vertex -40 -69.282 12
      vertex -53.5304 -59.4516 0
      vertex -40 -69.282 0
    endloop
  endfacet
  facet normal 0.587781 0.80902 -0
    outer loop
      vertex 50.2766 61.8157 0
      vertex 40 69.282 12
      vertex 50.2766 61.8157 12
    endloop
  endfacet
  facet normal 0.587781 0.80902 0
    outer loop
      vertex 40 69.282 12
      vertex 50.2766 61.8157 0
      vertex 40 69.282 0
    endloop
  endfacet
  facet normal -0.994522 -0.104529 0
    outer loop
      vertex -78.2518 -16.6329 0
      vertex -80 0 12
      vertex -80 0 0
    endloop
  endfacet
  facet normal -0.994522 -0.104529 0
    outer loop
      vertex -80 0 12
      vertex -78.2518 -16.6329 0
      vertex -78.2518 -16.6329 12
    endloop
  endfacet
  facet normal -0.951056 -0.309018 0
    outer loop
      vertex -73.0836 -32.5389 0
      vertex -77.0089 -20.4581 12
      vertex -77.0089 -20.4581 0
    endloop
  endfacet
  facet normal -0.951056 -0.309018 0
    outer loop
      vertex -77.0089 -20.4581 12
      vertex -73.0836 -32.5389 0
      vertex -73.0836 -32.5389 12
    endloop
  endfacet
  facet normal 0 0 -1
    outer loop
      vertex 24.7214 -76.0845 0
      vertex 29.4526 -77.7016 0
      vertex 25.6484 -78.9377 0
    endloop
  endfacet
  facet normal 0 0 -1
    outer loop
      vertex 53.5304 -59.4516 0
      vertex 58.5104 -59.0045 0
      vertex 55.5378 -61.681 0
    endloop
  endfacet
  facet normal 0 0 -1
    outer loop
      vertex 73.0836 -32.5389 0
      vertex 77.4512 -30.105 0
      vertex 75.8243 -33.7591 0
    endloop
  endfacet
  facet normal -0 0 -1
    outer loop
      vertex 77.4512 -30.105 0
      vertex 73.0836 -32.5389 0
      vertex 74.3265 -28.7138 0
    endloop
  endfacet
  facet normal 0 0 -1
    outer loop
      vertex 80 0 0
      vertex 83 4 0
      vertex 83 0 0
    endloop
  endfacet
  facet normal 0 0 -1
    outer loop
      vertex 80 0 0
      vertex 79.5796 4 0
      vertex 83 4 0
    endloop
  endfacet
  facet normal 0 0 -1
    outer loop
      vertex 2 0 0
      vertex 80 0 0
      vertex 78.2518 -16.6329 0
    endloop
  endfacet
  facet normal 0 0 -1
    outer loop
      vertex 80 0 0
      vertex 2 0 0
      vertex 79.5796 4 0
    endloop
  endfacet
  facet normal 0 0 -1
    outer loop
      vertex 1.9563 -0.415823 0
      vertex 78.2518 -16.6329 0
      vertex 74.3265 -28.7138 0
    endloop
  endfacet
  facet normal 0 0 -1
    outer loop
      vertex 1.82709 -0.813473 0
      vertex 74.3265 -28.7138 0
      vertex 73.0836 -32.5389 0
    endloop
  endfacet
  facet normal 0 0 -1
    outer loop
      vertex 1.9563 0.415823 0
      vertex 79.5796 4 0
      vertex 2 0 0
    endloop
  endfacet
  facet normal -0 0 -1
    outer loop
      vertex 79.5796 4 0
      vertex 1.9563 0.415823 0
      vertex 78.2518 16.6329 0
    endloop
  endfacet
  facet normal 0 0 -1
    outer loop
      vertex 1.82709 -0.813473 0
      vertex 73.0836 -32.5389 0
      vertex 64.7214 -47.0228 0
    endloop
  endfacet
  facet normal -0 0 -1
    outer loop
      vertex 78.2518 16.6329 0
      vertex 1.9563 0.415823 0
      vertex 73.0836 32.5389 0
    endloop
  endfacet
  facet normal 0 0 -1
    outer loop
      vertex 1.61803 -1.17557 0
      vertex 64.7214 -47.0228 0
      vertex 56.2217 -56.4626 0
    endloop
  endfacet
  facet normal -0 0 -1
    outer loop
      vertex 58.5104 -59.0045 0
      vertex 53.5304 -59.4516 0
      vertex 56.2217 -56.4626 0
    endloop
  endfacet
  facet normal 0 0 -1
    outer loop
      vertex 1.33826 -1.48629 0
      vertex 56.2217 -56.4626 0
      vertex 53.5304 -59.4516 0
    endloop
  endfacet
  facet normal 0 0 -1
    outer loop
      vertex 1.82709 0.813473 0
      vertex 73.0836 32.5389 0
      vertex 1.9563 0.415823 0
    endloop
  endfacet
  facet normal -0 0 -1
    outer loop
      vertex 73.0836 32.5389 0
      vertex 1.82709 0.813473 0
      vertex 71.0726 36.0221 0
    endloop
  endfacet
  facet normal 0 0 -1
    outer loop
      vertex 53.5304 59.4516 0
      vertex 50.2766 61.8157 0
      vertex 52.5653 64.3575 0
    endloop
  endfacet
  facet normal 0 0 -1
    outer loop
      vertex 1.33826 -1.48629 0
      vertex 53.5304 -59.4516 0
      vertex 40 -69.282 0
    endloop
  endfacet
  facet normal 0 0 -1
    outer loop
      vertex 1.61803 1.17557 0
      vertex 71.0726 36.0221 0
      vertex 1.82709 0.813473 0
    endloop
  endfacet
  facet normal 0 0 -1
    outer loop
      vertex 1 -1.73205 0
      vertex 40 -69.282 0
      vertex 28.3957 -74.4486 0
    endloop
  endfacet
  facet normal 0 0 -1
    outer loop
      vertex 29.4526 -77.7016 0
      vertex 24.7214 -76.0845 0
      vertex 28.3957 -74.4486 0
    endloop
  endfacet
  facet normal 0 0 -1
    outer loop
      vertex 0.618033 -1.90211 0
      vertex 28.3957 -74.4486 0
      vertex 24.7214 -76.0845 0
    endloop
  endfacet
  facet normal -0 0 -1
    outer loop
      vertex 71.0726 36.0221 0
      vertex 1.61803 1.17557 0
      vertex 64.7214 47.0228 0
    endloop
  endfacet
  facet normal -0 0 -1
    outer loop
      vertex 64.7214 47.0228 0
      vertex 1.61803 1.17557 0
      vertex 53.5304 59.4516 0
    endloop
  endfacet
  facet normal 0 0 -1
    outer loop
      vertex 24.7214 76.0845 0
      vertex 20.7872 76.9207 0
      vertex 21.8442 80.1738 0
    endloop
  endfacet
  facet normal 0 0 -1
    outer loop
      vertex 0.618033 -1.90211 0
      vertex 24.7214 -76.0845 0
      vertex 8.36228 -79.5618 0
    endloop
  endfacet
  facet normal 0 0 -1
    outer loop
      vertex 1.33826 1.48629 0
      vertex 53.5304 59.4516 0
      vertex 1.61803 1.17557 0
    endloop
  endfacet
  facet normal -0 0 -1
    outer loop
      vertex 53.5304 59.4516 0
      vertex 1.33826 1.48629 0
      vertex 50.2766 61.8157 0
    endloop
  endfacet
  facet normal 0 0 -1
    outer loop
      vertex 78.2518 -16.6329 0
      vertex 1.9563 -0.415823 0
      vertex 2 0 0
    endloop
  endfacet
  facet normal 0 0 -1
    outer loop
      vertex 74.3265 -28.7138 0
      vertex 1.82709 -0.813473 0
      vertex 1.9563 -0.415823 0
    endloop
  endfacet
  facet normal 0 0 -1
    outer loop
      vertex 64.7214 -47.0228 0
      vertex 1.61803 -1.17557 0
      vertex 1.82709 -0.813473 0
    endloop
  endfacet
  facet normal 0 0 -1
    outer loop
      vertex 56.2217 -56.4626 0
      vertex 1.33826 -1.48629 0
      vertex 1.61803 -1.17557 0
    endloop
  endfacet
  facet normal 0 0 -1
    outer loop
      vertex 40 -69.282 0
      vertex 1 -1.73205 0
      vertex 1.33826 -1.48629 0
    endloop
  endfacet
  facet normal 0 0 -1
    outer loop
      vertex 28.3957 -74.4486 0
      vertex 0.618033 -1.90211 0
      vertex 1 -1.73205 0
    endloop
  endfacet
  facet normal 0 0 -1
    outer loop
      vertex 8.36228 -79.5618 0
      vertex 0.209057 -1.98904 0
      vertex 0.618033 -1.90211 0
    endloop
  endfacet
  facet normal 0 0 -1
    outer loop
      vertex -4.34024 -79.5618 0
      vertex 0.209057 -1.98904 0
      vertex 8.36228 -79.5618 0
    endloop
  endfacet
  facet normal -0 0 -1
    outer loop
      vertex 0.209057 -1.98904 0
      vertex -4.34024 -79.5618 0
      vertex -0.209057 -1.98904 0
    endloop
  endfacet
  facet normal 0 0 -1
    outer loop
      vertex -8.36228 -79.5618 0
      vertex -0.209057 -1.98904 0
      vertex -4.34024 -79.5618 0
    endloop
  endfacet
  facet normal -0 0 -1
    outer loop
      vertex -0.209057 -1.98904 0
      vertex -8.36228 -79.5618 0
      vertex -0.618033 -1.90211 0
    endloop
  endfacet
  facet normal 0 0 -1
    outer loop
      vertex -24.7214 -76.0845 0
      vertex -0.618033 -1.90211 0
      vertex -8.36228 -79.5618 0
    endloop
  endfacet
  facet normal 0 0 -1
    outer loop
      vertex -36.3257 -70.9179 0
      vertex -0.618033 -1.90211 0
      vertex -24.7214 -76.0845 0
    endloop
  endfacet
  facet normal -0 0 -1
    outer loop
      vertex -0.618033 -1.90211 0
      vertex -36.3257 -70.9179 0
      vertex -1 -1.73205 0
    endloop
  endfacet
  facet normal -0 0 -1
    outer loop
      vertex -1 -1.73205 0
      vertex -40 -69.282 0
      vertex -1.33826 -1.48629 0
    endloop
  endfacet
  facet normal 0 0 -1
    outer loop
      vertex -40 -69.282 0
      vertex -1 -1.73205 0
      vertex -36.3257 -70.9179 0
    endloop
  endfacet
  facet normal 0 0 -1
    outer loop
      vertex 73.0836 32.5389 0
      vertex 74.1973 37.4133 0
      vertex 75.8243 33.7591 0
    endloop
  endfacet
  facet normal 0 0 -1
    outer loop
      vertex 74.1973 37.4133 0
      vertex 73.0836 32.5389 0
      vertex 71.0726 36.0221 0
    endloop
  endfacet
  facet normal -0 0 -1
    outer loop
      vertex 55.5378 61.681 0
      vertex 53.5304 59.4516 0
      vertex 52.5653 64.3575 0
    endloop
  endfacet
  facet normal 0 0 -1
    outer loop
      vertex -80.3546 -21.1693 0
      vertex -78.2518 -16.6329 0
      vertex -77.0089 -20.4581 0
    endloop
  endfacet
  facet normal 0 0 -1
    outer loop
      vertex -78.2518 -16.6329 0
      vertex -80.3546 -21.1693 0
      vertex -81.1862 -17.2567 0
    endloop
  endfacet
  facet normal 0 0 -1
    outer loop
      vertex -64.7973 -52.0222 0
      vertex -64.7214 -47.0228 0
      vertex -62.0301 -50.0118 0
    endloop
  endfacet
  facet normal 0 0 -1
    outer loop
      vertex -64.7214 -47.0228 0
      vertex -64.7973 -52.0222 0
      vertex -67.1484 -48.7862 0
    endloop
  endfacet
  facet normal 0 0 -1
    outer loop
      vertex -38.0359 -73.8801 0
      vertex -41.5 -71.8801 0
      vertex -40 -69.282 0
    endloop
  endfacet
  facet normal 0 0 -1
    outer loop
      vertex -4.69777 -82.9634 0
      vertex -8.67586 -82.5453 0
      vertex -8.36228 -79.5618 0
    endloop
  endfacet
  facet normal 0 0 -1
    outer loop
      vertex -8.36228 79.5618 0
      vertex -12.6539 82.1272 0
      vertex -8.67586 82.5453 0
    endloop
  endfacet
  facet normal 0 0 -1
    outer loop
      vertex -40 69.282 0
      vertex -44.9641 69.8801 0
      vertex -41.5 71.8801 0
    endloop
  endfacet
  facet normal 0 0 -1
    outer loop
      vertex -69.4995 45.5501 0
      vertex -64.7214 47.0228 0
      vertex -66.7324 43.5396 0
    endloop
  endfacet
  facet normal -0 0 -1
    outer loop
      vertex -64.7214 47.0228 0
      vertex -69.4995 45.5501 0
      vertex -67.1484 48.7862 0
    endloop
  endfacet
  facet normal 0 0 -1
    outer loop
      vertex -82.0179 13.3441 0
      vertex -78.2518 16.6329 0
      vertex -78.6722 12.6329 0
    endloop
  endfacet
  facet normal -0 0 -1
    outer loop
      vertex -78.2518 16.6329 0
      vertex -82.0179 13.3441 0
      vertex -81.1862 17.2567 0
    endloop
  endfacet
  facet normal -0 0 -1
    outer loop
      vertex 25.6484 78.9377 0
      vertex 24.7214 76.0845 0
      vertex 21.8442 80.1738 0
    endloop
  endfacet
  facet normal 0 0 -1
    outer loop
      vertex 1 1.73205 0
      vertex 50.2766 61.8157 0
      vertex 1.33826 1.48629 0
    endloop
  endfacet
  facet normal -0 0 -1
    outer loop
      vertex 50.2766 61.8157 0
      vertex 1 1.73205 0
      vertex 40 69.282 0
    endloop
  endfacet
  facet normal -0 0 -1
    outer loop
      vertex 40 69.282 0
      vertex 1 1.73205 0
      vertex 24.7214 76.0845 0
    endloop
  endfacet
  facet normal 0 0 -1
    outer loop
      vertex 0.618033 1.90211 0
      vertex 24.7214 76.0845 0
      vertex 1 1.73205 0
    endloop
  endfacet
  facet normal -0 0 -1
    outer loop
      vertex 24.7214 76.0845 0
      vertex 0.618033 1.90211 0
      vertex 20.7872 76.9207 0
    endloop
  endfacet
  facet normal 0 0 -1
    outer loop
      vertex 0.209057 1.98904 0
      vertex 20.7872 76.9207 0
      vertex 0.618033 1.90211 0
    endloop
  endfacet
  facet normal -0 0 -1
    outer loop
      vertex 20.7872 76.9207 0
      vertex 0.209057 1.98904 0
      vertex 8.36228 79.5618 0
    endloop
  endfacet
  facet normal 0 0 -1
    outer loop
      vertex -0.209057 1.98904 0
      vertex 8.36228 79.5618 0
      vertex 0.209057 1.98904 0
    endloop
  endfacet
  facet normal 0 0 -1
    outer loop
      vertex -12.2964 78.7255 0
      vertex -0.209057 1.98904 0
      vertex -0.618033 1.90211 0
    endloop
  endfacet
  facet normal 0 0 -1
    outer loop
      vertex -24.7214 76.0845 0
      vertex -0.618033 1.90211 0
      vertex -1 1.73205 0
    endloop
  endfacet
  facet normal 0 0 -1
    outer loop
      vertex -43.2539 66.9179 0
      vertex -1 1.73205 0
      vertex -1.33826 1.48629 0
    endloop
  endfacet
  facet normal 0 0 -1
    outer loop
      vertex -53.5304 59.4516 0
      vertex -1.33826 1.48629 0
      vertex -1.61803 1.17557 0
    endloop
  endfacet
  facet normal 0 0 -1
    outer loop
      vertex -66.7324 43.5396 0
      vertex -1.61803 1.17557 0
      vertex -1.82709 0.813473 0
    endloop
  endfacet
  facet normal 0 0 -1
    outer loop
      vertex -73.0836 32.5389 0
      vertex -1.82709 0.813473 0
      vertex -1.9563 0.415823 0
    endloop
  endfacet
  facet normal 0 0 -1
    outer loop
      vertex -8.36228 -79.5618 0
      vertex -4.34024 -79.5618 0
      vertex -4.69777 -82.9634 0
    endloop
  endfacet
  facet normal 0 0 -1
    outer loop
      vertex -53.5304 -59.4516 0
      vertex -1.33826 -1.48629 0
      vertex -40 -69.282 0
    endloop
  endfacet
  facet normal 0 0 -1
    outer loop
      vertex -0.209057 1.98904 0
      vertex -8.36228 79.5618 0
      vertex 8.36228 79.5618 0
    endloop
  endfacet
  facet normal 0 0 -1
    outer loop
      vertex -78.6722 12.6329 0
      vertex -1.9563 0.415823 0
      vertex -2 0 0
    endloop
  endfacet
  facet normal 0 0 -1
    outer loop
      vertex -62.0301 -50.0118 0
      vertex -1.33826 -1.48629 0
      vertex -53.5304 -59.4516 0
    endloop
  endfacet
  facet normal 0 0 -1
    outer loop
      vertex -0.209057 1.98904 0
      vertex -12.2964 78.7255 0
      vertex -8.36228 79.5618 0
    endloop
  endfacet
  facet normal 0 0 -1
    outer loop
      vertex -12.6539 82.1272 0
      vertex -8.36228 79.5618 0
      vertex -12.2964 78.7255 0
    endloop
  endfacet
  facet normal -0 0 -1
    outer loop
      vertex -1.33826 -1.48629 0
      vertex -62.0301 -50.0118 0
      vertex -1.61803 -1.17557 0
    endloop
  endfacet
  facet normal 0 0 -1
    outer loop
      vertex -64.7214 -47.0228 0
      vertex -1.61803 -1.17557 0
      vertex -62.0301 -50.0118 0
    endloop
  endfacet
  facet normal 0 0 -1
    outer loop
      vertex -1 1.73205 0
      vertex -43.2539 66.9179 0
      vertex -40 69.282 0
    endloop
  endfacet
  facet normal 0 0 -1
    outer loop
      vertex -40 -69.282 0
      vertex -36.3257 -70.9179 0
      vertex -38.0359 -73.8801 0
    endloop
  endfacet
  facet normal -0 0 -1
    outer loop
      vertex -1.61803 -1.17557 0
      vertex -64.7214 -47.0228 0
      vertex -1.82709 -0.813473 0
    endloop
  endfacet
  facet normal 0 0 -1
    outer loop
      vertex -0.618033 1.90211 0
      vertex -24.7214 76.0845 0
      vertex -12.2964 78.7255 0
    endloop
  endfacet
  facet normal 0 0 -1
    outer loop
      vertex -1 1.73205 0
      vertex -40 69.282 0
      vertex -24.7214 76.0845 0
    endloop
  endfacet
  facet normal 0 0 -1
    outer loop
      vertex -44.9641 69.8801 0
      vertex -40 69.282 0
      vertex -43.2539 66.9179 0
    endloop
  endfacet
  facet normal 0 0 -1
    outer loop
      vertex -73.0836 -32.5389 0
      vertex -1.82709 -0.813473 0
      vertex -64.7214 -47.0228 0
    endloop
  endfacet
  facet normal 0 0 -1
    outer loop
      vertex -77.0089 -20.4581 0
      vertex -1.82709 -0.813473 0
      vertex -73.0836 -32.5389 0
    endloop
  endfacet
  facet normal 0 0 -1
    outer loop
      vertex -1.61803 1.17557 0
      vertex -66.7324 43.5396 0
      vertex -64.7214 47.0228 0
    endloop
  endfacet
  facet normal -0 0 -1
    outer loop
      vertex -1.82709 -0.813473 0
      vertex -77.0089 -20.4581 0
      vertex -1.9563 -0.415823 0
    endloop
  endfacet
  facet normal 0 0 -1
    outer loop
      vertex -1.33826 1.48629 0
      vertex -53.5304 59.4516 0
      vertex -43.2539 66.9179 0
    endloop
  endfacet
  facet normal 0 0 -1
    outer loop
      vertex -1.61803 1.17557 0
      vertex -64.7214 47.0228 0
      vertex -53.5304 59.4516 0
    endloop
  endfacet
  facet normal 0 0 -1
    outer loop
      vertex -78.2518 -16.6329 0
      vertex -1.9563 -0.415823 0
      vertex -77.0089 -20.4581 0
    endloop
  endfacet
  facet normal -0 0 -1
    outer loop
      vertex -1.9563 -0.415823 0
      vertex -78.2518 -16.6329 0
      vertex -2 0 0
    endloop
  endfacet
  facet normal 0 0 -1
    outer loop
      vertex -1.9563 0.415823 0
      vertex -78.6722 12.6329 0
      vertex -78.2518 16.6329 0
    endloop
  endfacet
  facet normal -0 0 -1
    outer loop
      vertex -2 0 0
      vertex -78.2518 -16.6329 0
      vertex -80 0 0
    endloop
  endfacet
  facet normal 0 0 -1
    outer loop
      vertex -1.82709 0.813473 0
      vertex -73.0836 32.5389 0
      vertex -66.7324 43.5396 0
    endloop
  endfacet
  facet normal 0 0 -1
    outer loop
      vertex -1.9563 0.415823 0
      vertex -78.2518 16.6329 0
      vertex -73.0836 32.5389 0
    endloop
  endfacet
  facet normal 0 0 -1
    outer loop
      vertex -2 0 0
      vertex -80 0 0
      vertex -78.6722 12.6329 0
    endloop
  endfacet
  facet normal -0.866028 -0.499996 0
    outer loop
      vertex -64.7214 -47.0228 0
      vertex -73.0836 -32.5389 12
      vertex -73.0836 -32.5389 0
    endloop
  endfacet
  facet normal -0.866028 -0.499996 0
    outer loop
      vertex -73.0836 -32.5389 12
      vertex -64.7214 -47.0228 0
      vertex -64.7214 -47.0228 12
    endloop
  endfacet
  facet normal 0 -1 0
    outer loop
      vertex -4.34024 -79.5618 0
      vertex 8.36228 -79.5618 12
      vertex -4.34024 -79.5618 12
    endloop
  endfacet
  facet normal 0 -1 -0
    outer loop
      vertex 8.36228 -79.5618 12
      vertex -4.34024 -79.5618 0
      vertex 8.36228 -79.5618 0
    endloop
  endfacet
  facet normal 0.743142 -0.669133 0
    outer loop
      vertex 56.2217 -56.4626 12
      vertex 64.7214 -47.0228 0
      vertex 64.7214 -47.0228 12
    endloop
  endfacet
  facet normal 0.743142 -0.669133 0
    outer loop
      vertex 64.7214 -47.0228 0
      vertex 56.2217 -56.4626 12
      vertex 56.2217 -56.4626 0
    endloop
  endfacet
  facet normal 0.587785 -0.809017 0
    outer loop
      vertex 40 -69.282 0
      vertex 53.5304 -59.4516 12
      vertex 40 -69.282 12
    endloop
  endfacet
  facet normal 0.587785 -0.809017 0
    outer loop
      vertex 53.5304 -59.4516 12
      vertex 40 -69.282 0
      vertex 53.5304 -59.4516 0
    endloop
  endfacet
  facet normal -0.866027 0.499997 0
    outer loop
      vertex -73.0836 32.5389 0
      vertex -66.7324 43.5396 12
      vertex -66.7324 43.5396 0
    endloop
  endfacet
  facet normal -0.866027 0.499997 0
    outer loop
      vertex -66.7324 43.5396 12
      vertex -73.0836 32.5389 0
      vertex -73.0836 32.5389 12
    endloop
  endfacet
  facet normal 0.406731 0.913548 -0
    outer loop
      vertex -0.618033 -1.90211 0
      vertex -1 -1.73205 2
      vertex -0.618033 -1.90211 2
    endloop
  endfacet
  facet normal 0.406731 0.913548 0
    outer loop
      vertex -1 -1.73205 2
      vertex -0.618033 -1.90211 0
      vertex -1 -1.73205 0
    endloop
  endfacet
  facet normal -0.951053 -0.309029 0
    outer loop
      vertex 1.9563 0.415823 0
      vertex 1.82709 0.813473 2
      vertex 1.82709 0.813473 0
    endloop
  endfacet
  facet normal -0.951053 -0.309029 0
    outer loop
      vertex 1.82709 0.813473 2
      vertex 1.9563 0.415823 0
      vertex 1.9563 0.415823 2
    endloop
  endfacet
  facet normal -0.994523 -0.104517 0
    outer loop
      vertex 2 0 0
      vertex 1.9563 0.415823 2
      vertex 1.9563 0.415823 0
    endloop
  endfacet
  facet normal -0.994523 -0.104517 0
    outer loop
      vertex 1.9563 0.415823 2
      vertex 2 0 0
      vertex 2 0 2
    endloop
  endfacet
  facet normal -0.866022 -0.500006 0
    outer loop
      vertex 1.82709 0.813473 0
      vertex 1.61803 1.17557 2
      vertex 1.61803 1.17557 0
    endloop
  endfacet
  facet normal -0.866022 -0.500006 0
    outer loop
      vertex 1.61803 1.17557 2
      vertex 1.82709 0.813473 0
      vertex 1.82709 0.813473 2
    endloop
  endfacet
  facet normal 0.743149 0.669126 0
    outer loop
      vertex -1.33826 -1.48629 2
      vertex -1.61803 -1.17557 0
      vertex -1.61803 -1.17557 2
    endloop
  endfacet
  facet normal 0.743149 0.669126 0
    outer loop
      vertex -1.61803 -1.17557 0
      vertex -1.33826 -1.48629 2
      vertex -1.33826 -1.48629 0
    endloop
  endfacet
  facet normal -0.994523 0.104517 0
    outer loop
      vertex 1.9563 -0.415823 0
      vertex 2 0 2
      vertex 2 0 0
    endloop
  endfacet
  facet normal -0.994523 0.104517 0
    outer loop
      vertex 2 0 2
      vertex 1.9563 -0.415823 0
      vertex 1.9563 -0.415823 2
    endloop
  endfacet
  facet normal -0.866022 0.500006 0
    outer loop
      vertex 1.61803 -1.17557 0
      vertex 1.82709 -0.813473 2
      vertex 1.82709 -0.813473 0
    endloop
  endfacet
  facet normal -0.866022 0.500006 0
    outer loop
      vertex 1.82709 -0.813473 2
      vertex 1.61803 -1.17557 0
      vertex 1.61803 -1.17557 2
    endloop
  endfacet
  facet normal -0.406731 -0.913548 0
    outer loop
      vertex 0.618033 1.90211 0
      vertex 1 1.73205 2
      vertex 0.618033 1.90211 2
    endloop
  endfacet
  facet normal -0.406731 -0.913548 -0
    outer loop
      vertex 1 1.73205 2
      vertex 0.618033 1.90211 0
      vertex 1 1.73205 0
    endloop
  endfacet
  facet normal 0.951053 0.309029 0
    outer loop
      vertex -1.82709 -0.813473 2
      vertex -1.9563 -0.415823 0
      vertex -1.9563 -0.415823 2
    endloop
  endfacet
  facet normal 0.951053 0.309029 0
    outer loop
      vertex -1.9563 -0.415823 0
      vertex -1.82709 -0.813473 2
      vertex -1.82709 -0.813473 0
    endloop
  endfacet
  facet normal 0.587785 -0.809017 0
    outer loop
      vertex -1.33826 1.48629 0
      vertex -1 1.73205 2
      vertex -1.33826 1.48629 2
    endloop
  endfacet
  facet normal 0.587785 -0.809017 0
    outer loop
      vertex -1 1.73205 2
      vertex -1.33826 1.48629 0
      vertex -1 1.73205 0
    endloop
  endfacet
  facet normal -0.587785 -0.809017 0
    outer loop
      vertex 1 1.73205 0
      vertex 1.33826 1.48629 2
      vertex 1 1.73205 2
    endloop
  endfacet
  facet normal -0.587785 -0.809017 -0
    outer loop
      vertex 1.33826 1.48629 2
      vertex 1 1.73205 0
      vertex 1.33826 1.48629 0
    endloop
  endfacet
  facet normal 0.994523 -0.104517 0
    outer loop
      vertex -2 0 2
      vertex -1.9563 0.415823 0
      vertex -1.9563 0.415823 2
    endloop
  endfacet
  facet normal 0.994523 -0.104517 0
    outer loop
      vertex -1.9563 0.415823 0
      vertex -2 0 2
      vertex -2 0 0
    endloop
  endfacet
  facet normal -0.20791 0.978148 0
    outer loop
      vertex 0.618033 -1.90211 0
      vertex 0.209057 -1.98904 2
      vertex 0.618033 -1.90211 2
    endloop
  endfacet
  facet normal -0.20791 0.978148 0
    outer loop
      vertex 0.209057 -1.98904 2
      vertex 0.618033 -1.90211 0
      vertex 0.209057 -1.98904 0
    endloop
  endfacet
  facet normal 0.994523 0.104517 0
    outer loop
      vertex -1.9563 -0.415823 2
      vertex -2 0 0
      vertex -2 0 2
    endloop
  endfacet
  facet normal 0.994523 0.104517 0
    outer loop
      vertex -2 0 0
      vertex -1.9563 -0.415823 2
      vertex -1.9563 -0.415823 0
    endloop
  endfacet
  facet normal -0.743149 0.669126 0
    outer loop
      vertex 1.33826 -1.48629 0
      vertex 1.61803 -1.17557 2
      vertex 1.61803 -1.17557 0
    endloop
  endfacet
  facet normal -0.743149 0.669126 0
    outer loop
      vertex 1.61803 -1.17557 2
      vertex 1.33826 -1.48629 0
      vertex 1.33826 -1.48629 2
    endloop
  endfacet
  facet normal 0.951053 -0.309029 0
    outer loop
      vertex -1.9563 0.415823 2
      vertex -1.82709 0.813473 0
      vertex -1.82709 0.813473 2
    endloop
  endfacet
  facet normal 0.951053 -0.309029 0
    outer loop
      vertex -1.82709 0.813473 0
      vertex -1.9563 0.415823 2
      vertex -1.9563 0.415823 0
    endloop
  endfacet
  facet normal 0.20791 -0.978148 0
    outer loop
      vertex -0.618033 1.90211 0
      vertex -0.209057 1.98904 2
      vertex -0.618033 1.90211 2
    endloop
  endfacet
  facet normal 0.20791 -0.978148 0
    outer loop
      vertex -0.209057 1.98904 2
      vertex -0.618033 1.90211 0
      vertex -0.209057 1.98904 0
    endloop
  endfacet
  facet normal -0.20791 -0.978148 0
    outer loop
      vertex 0.209057 1.98904 0
      vertex 0.618033 1.90211 2
      vertex 0.209057 1.98904 2
    endloop
  endfacet
  facet normal -0.20791 -0.978148 -0
    outer loop
      vertex 0.618033 1.90211 2
      vertex 0.209057 1.98904 0
      vertex 0.618033 1.90211 0
    endloop
  endfacet
  facet normal 0.406731 -0.913548 0
    outer loop
      vertex -1 1.73205 0
      vertex -0.618033 1.90211 2
      vertex -1 1.73205 2
    endloop
  endfacet
  facet normal 0.406731 -0.913548 0
    outer loop
      vertex -0.618033 1.90211 2
      vertex -1 1.73205 0
      vertex -0.618033 1.90211 0
    endloop
  endfacet
  facet normal -0.406731 0.913548 0
    outer loop
      vertex 1 -1.73205 0
      vertex 0.618033 -1.90211 2
      vertex 1 -1.73205 2
    endloop
  endfacet
  facet normal -0.406731 0.913548 0
    outer loop
      vertex 0.618033 -1.90211 2
      vertex 1 -1.73205 0
      vertex 0.618033 -1.90211 0
    endloop
  endfacet
  facet normal -0.951053 0.309029 0
    outer loop
      vertex 1.82709 -0.813473 0
      vertex 1.9563 -0.415823 2
      vertex 1.9563 -0.415823 0
    endloop
  endfacet
  facet normal -0.951053 0.309029 0
    outer loop
      vertex 1.9563 -0.415823 2
      vertex 1.82709 -0.813473 0
      vertex 1.82709 -0.813473 2
    endloop
  endfacet
  facet normal 0.743149 -0.669126 0
    outer loop
      vertex -1.61803 1.17557 2
      vertex -1.33826 1.48629 0
      vertex -1.33826 1.48629 2
    endloop
  endfacet
  facet normal 0.743149 -0.669126 0
    outer loop
      vertex -1.33826 1.48629 0
      vertex -1.61803 1.17557 2
      vertex -1.61803 1.17557 0
    endloop
  endfacet
  facet normal 0.20791 0.978148 -0
    outer loop
      vertex -0.209057 -1.98904 0
      vertex -0.618033 -1.90211 2
      vertex -0.209057 -1.98904 2
    endloop
  endfacet
  facet normal 0.20791 0.978148 0
    outer loop
      vertex -0.618033 -1.90211 2
      vertex -0.209057 -1.98904 0
      vertex -0.618033 -1.90211 0
    endloop
  endfacet
  facet normal 0.866022 0.500006 0
    outer loop
      vertex -1.61803 -1.17557 2
      vertex -1.82709 -0.813473 0
      vertex -1.82709 -0.813473 2
    endloop
  endfacet
  facet normal 0.866022 0.500006 0
    outer loop
      vertex -1.82709 -0.813473 0
      vertex -1.61803 -1.17557 2
      vertex -1.61803 -1.17557 0
    endloop
  endfacet
  facet normal -0.743149 -0.669126 0
    outer loop
      vertex 1.61803 1.17557 0
      vertex 1.33826 1.48629 2
      vertex 1.33826 1.48629 0
    endloop
  endfacet
  facet normal -0.743149 -0.669126 0
    outer loop
      vertex 1.33826 1.48629 2
      vertex 1.61803 1.17557 0
      vertex 1.61803 1.17557 2
    endloop
  endfacet
  facet normal 0.866022 -0.500006 0
    outer loop
      vertex -1.82709 0.813473 2
      vertex -1.61803 1.17557 0
      vertex -1.61803 1.17557 2
    endloop
  endfacet
  facet normal 0.866022 -0.500006 0
    outer loop
      vertex -1.61803 1.17557 0
      vertex -1.82709 0.813473 2
      vertex -1.82709 0.813473 0
    endloop
  endfacet
  facet normal 0 1 -0
    outer loop
      vertex 0.209057 -1.98904 0
      vertex -0.209057 -1.98904 2
      vertex 0.209057 -1.98904 2
    endloop
  endfacet
  facet normal 0 1 0
    outer loop
      vertex -0.209057 -1.98904 2
      vertex 0.209057 -1.98904 0
      vertex -0.209057 -1.98904 0
    endloop
  endfacet
  facet normal -0.587785 0.809017 0
    outer loop
      vertex 1.33826 -1.48629 0
      vertex 1 -1.73205 2
      vertex 1.33826 -1.48629 2
    endloop
  endfacet
  facet normal -0.587785 0.809017 0
    outer loop
      vertex 1 -1.73205 2
      vertex 1.33826 -1.48629 0
      vertex 1 -1.73205 0
    endloop
  endfacet
  facet normal 0 -1 0
    outer loop
      vertex -0.209057 1.98904 0
      vertex 0.209057 1.98904 2
      vertex -0.209057 1.98904 2
    endloop
  endfacet
  facet normal 0 -1 -0
    outer loop
      vertex 0.209057 1.98904 2
      vertex -0.209057 1.98904 0
      vertex 0.209057 1.98904 0
    endloop
  endfacet
  facet normal 0.587785 0.809017 -0
    outer loop
      vertex -1 -1.73205 0
      vertex -1.33826 -1.48629 2
      vertex -1 -1.73205 2
    endloop
  endfacet
  facet normal 0.587785 0.809017 0
    outer loop
      vertex -1.33826 -1.48629 2
      vertex -1 -1.73205 0
      vertex -1.33826 -1.48629 0
    endloop
  endfacet
  facet normal 0 1 -0
    outer loop
      vertex 3.75278 -6.5 2
      vertex -3.75278 -6.5 12
      vertex 3.75278 -6.5 12
    endloop
  endfacet
  facet normal 0 1 0
    outer loop
      vertex -3.75278 -6.5 12
      vertex 3.75278 -6.5 2
      vertex -3.75278 -6.5 2
    endloop
  endfacet
  facet normal -0.866026 0.499999 0
    outer loop
      vertex 3.75278 -6.5 2
      vertex 7.50555 0 12
      vertex 7.50555 0 2
    endloop
  endfacet
  facet normal -0.866026 0.499999 0
    outer loop
      vertex 7.50555 0 12
      vertex 3.75278 -6.5 2
      vertex 3.75278 -6.5 12
    endloop
  endfacet
  facet normal 0 -1 0
    outer loop
      vertex -3.75278 6.5 2
      vertex 3.75278 6.5 12
      vertex -3.75278 6.5 12
    endloop
  endfacet
  facet normal 0 -1 -0
    outer loop
      vertex 3.75278 6.5 12
      vertex -3.75278 6.5 2
      vertex 3.75278 6.5 2
    endloop
  endfacet
  facet normal -0.866026 -0.499999 0
    outer loop
      vertex 7.50555 0 2
      vertex 3.75278 6.5 12
      vertex 3.75278 6.5 2
    endloop
  endfacet
  facet normal -0.866026 -0.499999 0
    outer loop
      vertex 3.75278 6.5 12
      vertex 7.50555 0 2
      vertex 7.50555 0 12
    endloop
  endfacet
  facet normal 0.866026 -0.499999 0
    outer loop
      vertex -7.50555 0 12
      vertex -3.75278 6.5 2
      vertex -3.75278 6.5 12
    endloop
  endfacet
  facet normal 0.866026 -0.499999 0
    outer loop
      vertex -3.75278 6.5 2
      vertex -7.50555 0 12
      vertex -7.50555 0 2
    endloop
  endfacet
  facet normal 0.866026 0.499999 0
    outer loop
      vertex -3.75278 -6.5 12
      vertex -7.50555 0 2
      vertex -7.50555 0 12
    endloop
  endfacet
  facet normal 0.866026 0.499999 0
    outer loop
      vertex -7.50555 0 2
      vertex -3.75278 -6.5 12
      vertex -3.75278 -6.5 2
    endloop
  endfacet
  facet normal -0 0 1
    outer loop
      vertex 1.82709 0.813473 2
      vertex 7.50555 0 2
      vertex 3.75278 6.5 2
    endloop
  endfacet
  facet normal 0 0 1
    outer loop
      vertex 1.9563 -0.415823 2
      vertex 7.50555 0 2
      vertex 2 0 2
    endloop
  endfacet
  facet normal 0 0 1
    outer loop
      vertex 7.50555 0 2
      vertex 1.9563 0.415823 2
      vertex 2 0 2
    endloop
  endfacet
  facet normal 0 0 1
    outer loop
      vertex 7.50555 0 2
      vertex 1.82709 0.813473 2
      vertex 1.9563 0.415823 2
    endloop
  endfacet
  facet normal 0 0 1
    outer loop
      vertex 3.75278 6.5 2
      vertex 1.61803 1.17557 2
      vertex 1.82709 0.813473 2
    endloop
  endfacet
  facet normal 0 0 1
    outer loop
      vertex 3.75278 6.5 2
      vertex 1.33826 1.48629 2
      vertex 1.61803 1.17557 2
    endloop
  endfacet
  facet normal 0 0 1
    outer loop
      vertex 3.75278 6.5 2
      vertex 1 1.73205 2
      vertex 1.33826 1.48629 2
    endloop
  endfacet
  facet normal 0 0 1
    outer loop
      vertex 3.75278 6.5 2
      vertex 0.618033 1.90211 2
      vertex 1 1.73205 2
    endloop
  endfacet
  facet normal 0 0 1
    outer loop
      vertex 3.75278 6.5 2
      vertex 0.209057 1.98904 2
      vertex 0.618033 1.90211 2
    endloop
  endfacet
  facet normal 0 0 1
    outer loop
      vertex 3.75278 6.5 2
      vertex -0.209057 1.98904 2
      vertex 0.209057 1.98904 2
    endloop
  endfacet
  facet normal -0 0 1
    outer loop
      vertex -3.75278 6.5 2
      vertex -0.209057 1.98904 2
      vertex 3.75278 6.5 2
    endloop
  endfacet
  facet normal 0 0 1
    outer loop
      vertex -0.209057 1.98904 2
      vertex -3.75278 6.5 2
      vertex -0.618033 1.90211 2
    endloop
  endfacet
  facet normal 0 0 1
    outer loop
      vertex -0.618033 1.90211 2
      vertex -3.75278 6.5 2
      vertex -1 1.73205 2
    endloop
  endfacet
  facet normal 0 0 1
    outer loop
      vertex -1.82709 0.813473 2
      vertex -7.50555 0 2
      vertex -1.9563 0.415823 2
    endloop
  endfacet
  facet normal 0 0 1
    outer loop
      vertex -7.50555 0 2
      vertex -1.82709 0.813473 2
      vertex -3.75278 6.5 2
    endloop
  endfacet
  facet normal 0 0 1
    outer loop
      vertex -1.61803 1.17557 2
      vertex -3.75278 6.5 2
      vertex -1.82709 0.813473 2
    endloop
  endfacet
  facet normal 0 0 1
    outer loop
      vertex -1.33826 1.48629 2
      vertex -3.75278 6.5 2
      vertex -1.61803 1.17557 2
    endloop
  endfacet
  facet normal 0 0 1
    outer loop
      vertex -1 1.73205 2
      vertex -3.75278 6.5 2
      vertex -1.33826 1.48629 2
    endloop
  endfacet
  facet normal 0 0 1
    outer loop
      vertex 1.82709 -0.813473 2
      vertex 7.50555 0 2
      vertex 1.9563 -0.415823 2
    endloop
  endfacet
  facet normal 0 0 1
    outer loop
      vertex 7.50555 0 2
      vertex 1.82709 -0.813473 2
      vertex 3.75278 -6.5 2
    endloop
  endfacet
  facet normal -0 0 1
    outer loop
      vertex 1.61803 -1.17557 2
      vertex 3.75278 -6.5 2
      vertex 1.82709 -0.813473 2
    endloop
  endfacet
  facet normal -0 0 1
    outer loop
      vertex 1.33826 -1.48629 2
      vertex 3.75278 -6.5 2
      vertex 1.61803 -1.17557 2
    endloop
  endfacet
  facet normal -0 0 1
    outer loop
      vertex 1 -1.73205 2
      vertex 3.75278 -6.5 2
      vertex 1.33826 -1.48629 2
    endloop
  endfacet
  facet normal -0 0 1
    outer loop
      vertex 0.618033 -1.90211 2
      vertex 3.75278 -6.5 2
      vertex 1 -1.73205 2
    endloop
  endfacet
  facet normal -0 0 1
    outer loop
      vertex 0.209057 -1.98904 2
      vertex 3.75278 -6.5 2
      vertex 0.618033 -1.90211 2
    endloop
  endfacet
  facet normal -0 0 1
    outer loop
      vertex -0.209057 -1.98904 2
      vertex 3.75278 -6.5 2
      vertex 0.209057 -1.98904 2
    endloop
  endfacet
  facet normal 0 0 1
    outer loop
      vertex -3.75278 -6.5 2
      vertex -0.209057 -1.98904 2
      vertex -0.618033 -1.90211 2
    endloop
  endfacet
  facet normal 0 0 1
    outer loop
      vertex -3.75278 -6.5 2
      vertex -0.618033 -1.90211 2
      vertex -1 -1.73205 2
    endloop
  endfacet
  facet normal 0 0 1
    outer loop
      vertex -3.75278 -6.5 2
      vertex -1 -1.73205 2
      vertex -1.33826 -1.48629 2
    endloop
  endfacet
  facet normal 0 0 1
    outer loop
      vertex -1.9563 0.415823 2
      vertex -7.50555 0 2
      vertex -2 0 2
    endloop
  endfacet
  facet normal 0 0 1
    outer loop
      vertex -0.209057 -1.98904 2
      vertex -3.75278 -6.5 2
      vertex 3.75278 -6.5 2
    endloop
  endfacet
  facet normal 0 0 1
    outer loop
      vertex -1.61803 -1.17557 2
      vertex -3.75278 -6.5 2
      vertex -1.33826 -1.48629 2
    endloop
  endfacet
  facet normal 0 0 1
    outer loop
      vertex -1.82709 -0.813473 2
      vertex -3.75278 -6.5 2
      vertex -1.61803 -1.17557 2
    endloop
  endfacet
  facet normal 0 0 1
    outer loop
      vertex -7.50555 0 2
      vertex -1.82709 -0.813473 2
      vertex -1.9563 -0.415823 2
    endloop
  endfacet
  facet normal 0 0 1
    outer loop
      vertex -2 0 2
      vertex -7.50555 0 2
      vertex -1.9563 -0.415823 2
    endloop
  endfacet
  facet normal 0 0 1
    outer loop
      vertex -1.82709 -0.813473 2
      vertex -7.50555 0 2
      vertex -3.75278 -6.5 2
    endloop
  endfacet
  facet normal 1 -0 0
    outer loop
      vertex 83 0 12
      vertex 83 4 0
      vertex 83 4 12
    endloop
  endfacet
  facet normal 1 0 0
    outer loop
      vertex 83 4 0
      vertex 83 0 12
      vertex 83 0 0
    endloop
  endfacet
  facet normal 0 1 -0
    outer loop
      vertex 83 4 0
      vertex 79.5796 4 12
      vertex 83 4 12
    endloop
  endfacet
  facet normal 0 1 0
    outer loop
      vertex 79.5796 4 12
      vertex 83 4 0
      vertex 79.5796 4 0
    endloop
  endfacet
  facet normal 0 -1 0
    outer loop
      vertex 80 0 0
      vertex 83 0 12
      vertex 80 0 12
    endloop
  endfacet
  facet normal 0 -1 -0
    outer loop
      vertex 83 0 12
      vertex 80 0 0
      vertex 83 0 0
    endloop
  endfacet
  facet normal -0.406735 0.913546 0
    outer loop
      vertex 74.1973 37.4133 0
      vertex 71.0726 36.0221 12
      vertex 74.1973 37.4133 12
    endloop
  endfacet
  facet normal -0.406735 0.913546 0
    outer loop
      vertex 71.0726 36.0221 12
      vertex 74.1973 37.4133 0
      vertex 71.0726 36.0221 0
    endloop
  endfacet
  facet normal 0.406726 -0.91355 0
    outer loop
      vertex 73.0836 32.5389 0
      vertex 75.8243 33.7591 12
      vertex 73.0836 32.5389 12
    endloop
  endfacet
  facet normal 0.406726 -0.91355 0
    outer loop
      vertex 75.8243 33.7591 12
      vertex 73.0836 32.5389 0
      vertex 75.8243 33.7591 0
    endloop
  endfacet
  facet normal 0.913541 0.406746 0
    outer loop
      vertex 75.8243 33.7591 12
      vertex 74.1973 37.4133 0
      vertex 74.1973 37.4133 12
    endloop
  endfacet
  facet normal 0.913541 0.406746 0
    outer loop
      vertex 74.1973 37.4133 0
      vertex 75.8243 33.7591 12
      vertex 75.8243 33.7591 0
    endloop
  endfacet
  facet normal -0.743137 0.669139 0
    outer loop
      vertex 50.2766 61.8157 0
      vertex 52.5653 64.3575 12
      vertex 52.5653 64.3575 0
    endloop
  endfacet
  facet normal -0.743137 0.669139 0
    outer loop
      vertex 52.5653 64.3575 12
      vertex 50.2766 61.8157 0
      vertex 50.2766 61.8157 12
    endloop
  endfacet
  facet normal 0.743138 -0.669138 0
    outer loop
      vertex 53.5304 59.4516 12
      vertex 55.5378 61.681 0
      vertex 55.5378 61.681 12
    endloop
  endfacet
  facet normal 0.743138 -0.669138 0
    outer loop
      vertex 55.5378 61.681 0
      vertex 53.5304 59.4516 12
      vertex 53.5304 59.4516 0
    endloop
  endfacet
  facet normal 0.669137 0.743139 -0
    outer loop
      vertex 55.5378 61.681 0
      vertex 52.5653 64.3575 12
      vertex 55.5378 61.681 12
    endloop
  endfacet
  facet normal 0.669137 0.743139 0
    outer loop
      vertex 52.5653 64.3575 12
      vertex 55.5378 61.681 0
      vertex 52.5653 64.3575 0
    endloop
  endfacet
  facet normal 0.309026 0.951054 -0
    outer loop
      vertex 25.6484 78.9377 0
      vertex 21.8442 80.1738 12
      vertex 25.6484 78.9377 12
    endloop
  endfacet
  facet normal 0.309026 0.951054 0
    outer loop
      vertex 21.8442 80.1738 12
      vertex 25.6484 78.9377 0
      vertex 21.8442 80.1738 0
    endloop
  endfacet
  facet normal -0.951056 0.309018 0
    outer loop
      vertex 20.7872 76.9207 0
      vertex 21.8442 80.1738 12
      vertex 21.8442 80.1738 0
    endloop
  endfacet
  facet normal -0.951056 0.309018 0
    outer loop
      vertex 21.8442 80.1738 12
      vertex 20.7872 76.9207 0
      vertex 20.7872 76.9207 12
    endloop
  endfacet
  facet normal 0.951062 -0.308999 0
    outer loop
      vertex 24.7214 76.0845 12
      vertex 25.6484 78.9377 0
      vertex 25.6484 78.9377 12
    endloop
  endfacet
  facet normal 0.951062 -0.308999 0
    outer loop
      vertex 25.6484 78.9377 0
      vertex 24.7214 76.0845 12
      vertex 24.7214 76.0845 0
    endloop
  endfacet
  facet normal 0.994522 0.104529 0
    outer loop
      vertex -8.36228 79.5618 12
      vertex -8.67586 82.5453 0
      vertex -8.67586 82.5453 12
    endloop
  endfacet
  facet normal 0.994522 0.104529 0
    outer loop
      vertex -8.67586 82.5453 0
      vertex -8.36228 79.5618 12
      vertex -8.36228 79.5618 0
    endloop
  endfacet
  facet normal -0.994523 -0.104519 0
    outer loop
      vertex -12.2964 78.7255 0
      vertex -12.6539 82.1272 12
      vertex -12.6539 82.1272 0
    endloop
  endfacet
  facet normal -0.994523 -0.104519 0
    outer loop
      vertex -12.6539 82.1272 12
      vertex -12.2964 78.7255 0
      vertex -12.2964 78.7255 12
    endloop
  endfacet
  facet normal -0.104526 0.994522 0
    outer loop
      vertex -8.67586 82.5453 0
      vertex -12.6539 82.1272 12
      vertex -8.67586 82.5453 12
    endloop
  endfacet
  facet normal -0.104526 0.994522 0
    outer loop
      vertex -12.6539 82.1272 12
      vertex -8.67586 82.5453 0
      vertex -12.6539 82.1272 0
    endloop
  endfacet
  facet normal -0.866029 -0.499994 0
    outer loop
      vertex -43.2539 66.9179 0
      vertex -44.9641 69.8801 12
      vertex -44.9641 69.8801 0
    endloop
  endfacet
  facet normal -0.866029 -0.499994 0
    outer loop
      vertex -44.9641 69.8801 12
      vertex -43.2539 66.9179 0
      vertex -43.2539 66.9179 12
    endloop
  endfacet
  facet normal 0.866027 0.499997 0
    outer loop
      vertex -40 69.282 12
      vertex -41.5 71.8801 0
      vertex -41.5 71.8801 12
    endloop
  endfacet
  facet normal 0.866027 0.499997 0
    outer loop
      vertex -41.5 71.8801 0
      vertex -40 69.282 12
      vertex -40 69.282 0
    endloop
  endfacet
  facet normal -0.5 0.866025 0
    outer loop
      vertex -41.5 71.8801 0
      vertex -44.9641 69.8801 12
      vertex -41.5 71.8801 12
    endloop
  endfacet
  facet normal -0.5 0.866025 0
    outer loop
      vertex -44.9641 69.8801 12
      vertex -41.5 71.8801 0
      vertex -44.9641 69.8801 0
    endloop
  endfacet
  facet normal 0.587803 0.809004 -0
    outer loop
      vertex -64.7214 47.0228 0
      vertex -67.1484 48.7862 12
      vertex -64.7214 47.0228 12
    endloop
  endfacet
  facet normal 0.587803 0.809004 0
    outer loop
      vertex -67.1484 48.7862 12
      vertex -64.7214 47.0228 0
      vertex -67.1484 48.7862 0
    endloop
  endfacet
  facet normal -0.587801 -0.809005 0
    outer loop
      vertex -69.4995 45.5501 0
      vertex -66.7324 43.5396 12
      vertex -69.4995 45.5501 12
    endloop
  endfacet
  facet normal -0.587801 -0.809005 -0
    outer loop
      vertex -66.7324 43.5396 12
      vertex -69.4995 45.5501 0
      vertex -66.7324 43.5396 0
    endloop
  endfacet
  facet normal -0.809025 0.587775 0
    outer loop
      vertex -69.4995 45.5501 0
      vertex -67.1484 48.7862 12
      vertex -67.1484 48.7862 0
    endloop
  endfacet
  facet normal -0.809025 0.587775 0
    outer loop
      vertex -67.1484 48.7862 12
      vertex -69.4995 45.5501 0
      vertex -69.4995 45.5501 12
    endloop
  endfacet
  facet normal -0.978145 0.207924 0
    outer loop
      vertex -82.0179 13.3441 0
      vertex -81.1862 17.2567 12
      vertex -81.1862 17.2567 0
    endloop
  endfacet
  facet normal -0.978145 0.207924 0
    outer loop
      vertex -81.1862 17.2567 12
      vertex -82.0179 13.3441 0
      vertex -82.0179 13.3441 12
    endloop
  endfacet
  facet normal 0.207935 0.978143 -0
    outer loop
      vertex -78.2518 16.6329 0
      vertex -81.1862 17.2567 12
      vertex -78.2518 16.6329 12
    endloop
  endfacet
  facet normal 0.207935 0.978143 0
    outer loop
      vertex -81.1862 17.2567 12
      vertex -78.2518 16.6329 0
      vertex -81.1862 17.2567 0
    endloop
  endfacet
  facet normal -0.207926 -0.978145 0
    outer loop
      vertex -82.0179 13.3441 0
      vertex -78.6722 12.6329 12
      vertex -82.0179 13.3441 12
    endloop
  endfacet
  facet normal -0.207926 -0.978145 -0
    outer loop
      vertex -78.6722 12.6329 12
      vertex -82.0179 13.3441 0
      vertex -78.6722 12.6329 0
    endloop
  endfacet
  facet normal -0.97815 -0.2079 0
    outer loop
      vertex -80.3546 -21.1693 0
      vertex -81.1862 -17.2567 12
      vertex -81.1862 -17.2567 0
    endloop
  endfacet
  facet normal -0.97815 -0.2079 0
    outer loop
      vertex -81.1862 -17.2567 12
      vertex -80.3546 -21.1693 0
      vertex -80.3546 -21.1693 12
    endloop
  endfacet
  facet normal 0.207926 -0.978145 0
    outer loop
      vertex -80.3546 -21.1693 0
      vertex -77.0089 -20.4581 12
      vertex -80.3546 -21.1693 12
    endloop
  endfacet
  facet normal 0.207926 -0.978145 0
    outer loop
      vertex -77.0089 -20.4581 12
      vertex -80.3546 -21.1693 0
      vertex -77.0089 -20.4581 0
    endloop
  endfacet
  facet normal -0.207935 0.978143 0
    outer loop
      vertex -78.2518 -16.6329 0
      vertex -81.1862 -17.2567 12
      vertex -78.2518 -16.6329 12
    endloop
  endfacet
  facet normal -0.207935 0.978143 0
    outer loop
      vertex -81.1862 -17.2567 12
      vertex -78.2518 -16.6329 0
      vertex -81.1862 -17.2567 0
    endloop
  endfacet
  facet normal -0.809016 -0.587787 0
    outer loop
      vertex -64.7973 -52.0222 0
      vertex -67.1484 -48.7862 12
      vertex -67.1484 -48.7862 0
    endloop
  endfacet
  facet normal -0.809016 -0.587787 0
    outer loop
      vertex -67.1484 -48.7862 12
      vertex -64.7973 -52.0222 0
      vertex -64.7973 -52.0222 12
    endloop
  endfacet
  facet normal -0.587803 0.809004 0
    outer loop
      vertex -64.7214 -47.0228 0
      vertex -67.1484 -48.7862 12
      vertex -64.7214 -47.0228 12
    endloop
  endfacet
  facet normal -0.587803 0.809004 0
    outer loop
      vertex -67.1484 -48.7862 12
      vertex -64.7214 -47.0228 0
      vertex -67.1484 -48.7862 0
    endloop
  endfacet
  facet normal 0.587768 -0.809029 0
    outer loop
      vertex -64.7973 -52.0222 0
      vertex -62.0301 -50.0118 12
      vertex -64.7973 -52.0222 12
    endloop
  endfacet
  facet normal 0.587768 -0.809029 0
    outer loop
      vertex -62.0301 -50.0118 12
      vertex -64.7973 -52.0222 0
      vertex -62.0301 -50.0118 0
    endloop
  endfacet
  facet normal -0.5 -0.866025 0
    outer loop
      vertex -41.5 -71.8801 0
      vertex -38.0359 -73.8801 12
      vertex -41.5 -71.8801 12
    endloop
  endfacet
  facet normal -0.5 -0.866025 -0
    outer loop
      vertex -38.0359 -73.8801 12
      vertex -41.5 -71.8801 0
      vertex -38.0359 -73.8801 0
    endloop
  endfacet
  facet normal -0.866027 0.499997 0
    outer loop
      vertex -41.5 -71.8801 0
      vertex -40 -69.282 12
      vertex -40 -69.282 0
    endloop
  endfacet
  facet normal -0.866027 0.499997 0
    outer loop
      vertex -40 -69.282 12
      vertex -41.5 -71.8801 0
      vertex -41.5 -71.8801 12
    endloop
  endfacet
  facet normal 0.866029 -0.499994 0
    outer loop
      vertex -38.0359 -73.8801 12
      vertex -36.3257 -70.9179 0
      vertex -36.3257 -70.9179 12
    endloop
  endfacet
  facet normal 0.866029 -0.499994 0
    outer loop
      vertex -36.3257 -70.9179 0
      vertex -38.0359 -73.8801 12
      vertex -38.0359 -73.8801 0
    endloop
  endfacet
  facet normal -0.104525 -0.994522 0
    outer loop
      vertex -8.67586 -82.5453 0
      vertex -4.69777 -82.9634 12
      vertex -8.67586 -82.5453 12
    endloop
  endfacet
  facet normal -0.104525 -0.994522 -0
    outer loop
      vertex -4.69777 -82.9634 12
      vertex -8.67586 -82.5453 0
      vertex -4.69777 -82.9634 0
    endloop
  endfacet
  facet normal -0.994522 0.104529 0
    outer loop
      vertex -8.67586 -82.5453 0
      vertex -8.36228 -79.5618 12
      vertex -8.36228 -79.5618 0
    endloop
  endfacet
  facet normal -0.994522 0.104529 0
    outer loop
      vertex -8.36228 -79.5618 12
      vertex -8.67586 -82.5453 0
      vertex -8.67586 -82.5453 12
    endloop
  endfacet
  facet normal 0.994522 -0.104531 0
    outer loop
      vertex -4.69777 -82.9634 12
      vertex -4.34024 -79.5618 0
      vertex -4.34024 -79.5618 12
    endloop
  endfacet
  facet normal 0.994522 -0.104531 0
    outer loop
      vertex -4.34024 -79.5618 0
      vertex -4.69777 -82.9634 12
      vertex -4.69777 -82.9634 0
    endloop
  endfacet
  facet normal 0.309026 -0.951054 0
    outer loop
      vertex 25.6484 -78.9377 0
      vertex 29.4526 -77.7016 12
      vertex 25.6484 -78.9377 12
    endloop
  endfacet
  facet normal 0.309026 -0.951054 0
    outer loop
      vertex 29.4526 -77.7016 12
      vertex 25.6484 -78.9377 0
      vertex 29.4526 -77.7016 0
    endloop
  endfacet
  facet normal 0.951062 0.309 0
    outer loop
      vertex 29.4526 -77.7016 12
      vertex 28.3957 -74.4486 0
      vertex 28.3957 -74.4486 12
    endloop
  endfacet
  facet normal 0.951062 0.309 0
    outer loop
      vertex 28.3957 -74.4486 0
      vertex 29.4526 -77.7016 12
      vertex 29.4526 -77.7016 0
    endloop
  endfacet
  facet normal -0.951062 -0.308999 0
    outer loop
      vertex 25.6484 -78.9377 0
      vertex 24.7214 -76.0845 12
      vertex 24.7214 -76.0845 0
    endloop
  endfacet
  facet normal -0.951062 -0.308999 0
    outer loop
      vertex 24.7214 -76.0845 12
      vertex 25.6484 -78.9377 0
      vertex 25.6484 -78.9377 12
    endloop
  endfacet
  facet normal 0.669125 -0.74315 0
    outer loop
      vertex 55.5378 -61.681 0
      vertex 58.5104 -59.0045 12
      vertex 55.5378 -61.681 12
    endloop
  endfacet
  facet normal 0.669125 -0.74315 0
    outer loop
      vertex 58.5104 -59.0045 12
      vertex 55.5378 -61.681 0
      vertex 58.5104 -59.0045 0
    endloop
  endfacet
  facet normal 0.74315 0.669125 0
    outer loop
      vertex 58.5104 -59.0045 12
      vertex 56.2217 -56.4626 0
      vertex 56.2217 -56.4626 12
    endloop
  endfacet
  facet normal 0.74315 0.669125 0
    outer loop
      vertex 56.2217 -56.4626 0
      vertex 58.5104 -59.0045 12
      vertex 58.5104 -59.0045 0
    endloop
  endfacet
  facet normal -0.743138 -0.669138 0
    outer loop
      vertex 55.5378 -61.681 0
      vertex 53.5304 -59.4516 12
      vertex 53.5304 -59.4516 0
    endloop
  endfacet
  facet normal -0.743138 -0.669138 0
    outer loop
      vertex 53.5304 -59.4516 12
      vertex 55.5378 -61.681 0
      vertex 55.5378 -61.681 12
    endloop
  endfacet
  facet normal 0.913546 -0.406735 0
    outer loop
      vertex 75.8243 -33.7591 12
      vertex 77.4512 -30.105 0
      vertex 77.4512 -30.105 12
    endloop
  endfacet
  facet normal 0.913546 -0.406735 0
    outer loop
      vertex 77.4512 -30.105 0
      vertex 75.8243 -33.7591 12
      vertex 75.8243 -33.7591 0
    endloop
  endfacet
  facet normal 0.406735 0.913546 -0
    outer loop
      vertex 77.4512 -30.105 0
      vertex 74.3265 -28.7138 12
      vertex 77.4512 -30.105 12
    endloop
  endfacet
  facet normal 0.406735 0.913546 0
    outer loop
      vertex 74.3265 -28.7138 12
      vertex 77.4512 -30.105 0
      vertex 74.3265 -28.7138 0
    endloop
  endfacet
  facet normal -0.406726 -0.91355 0
    outer loop
      vertex 73.0836 -32.5389 0
      vertex 75.8243 -33.7591 12
      vertex 73.0836 -32.5389 12
    endloop
  endfacet
  facet normal -0.406726 -0.91355 -0
    outer loop
      vertex 75.8243 -33.7591 12
      vertex 73.0836 -32.5389 0
      vertex 75.8243 -33.7591 0
    endloop
  endfacet
endsolid OpenSCAD_Model
