solid OpenSCAD_Model
  facet normal 0.0784556 -0.996918 0
    outer loop
      vertex 0 -45 0
      vertex 7.03955 -44.446 2
      vertex 0 -45 2
    endloop
  endfacet
  facet normal 0.0784556 -0.996918 0
    outer loop
      vertex 7.03955 -44.446 2
      vertex 0 -45 0
      vertex 7.03955 -44.446 0
    endloop
  endfacet
  facet normal 0.0784556 -0.996918 0
    outer loop
      vertex 0 -45 4
      vertex 7.03955 -44.446 6
      vertex 0 -45 6
    endloop
  endfacet
  facet normal 0.0784556 -0.996918 0
    outer loop
      vertex 7.03955 -44.446 6
      vertex 0 -45 4
      vertex 7.03955 -44.446 4
    endloop
  endfacet
  facet normal 0.972368 0.233453 0
    outer loop
      vertex 44.446 7.03955 6
      vertex 42.7975 13.9058 0
      vertex 42.7975 13.9058 6
    endloop
  endfacet
  facet normal 0.972368 0.233453 0
    outer loop
      vertex 42.7975 13.9058 0
      vertex 44.446 7.03955 6
      vertex 44.446 7.03955 0
    endloop
  endfacet
  facet normal 0.996918 0.0784556 0
    outer loop
      vertex 45 0 6
      vertex 44.446 7.03955 0
      vertex 44.446 7.03955 6
    endloop
  endfacet
  facet normal 0.996918 0.0784556 0
    outer loop
      vertex 44.446 7.03955 0
      vertex 45 0 6
      vertex 45 0 0
    endloop
  endfacet
  facet normal 0.923882 0.382678 0
    outer loop
      vertex 42.7975 13.9058 6
      vertex 40.0953 20.4296 0
      vertex 40.0953 20.4296 6
    endloop
  endfacet
  facet normal 0.923882 0.382678 0
    outer loop
      vertex 40.0953 20.4296 0
      vertex 42.7975 13.9058 6
      vertex 42.7975 13.9058 0
    endloop
  endfacet
  facet normal 0.382678 0.923882 -0
    outer loop
      vertex 20.4296 40.0953 0
      vertex 13.9058 42.7975 6
      vertex 20.4296 40.0953 6
    endloop
  endfacet
  facet normal 0.382678 0.923882 0
    outer loop
      vertex 13.9058 42.7975 6
      vertex 20.4296 40.0953 0
      vertex 13.9058 42.7975 0
    endloop
  endfacet
  facet normal -0.760405 0.649449 0
    outer loop
      vertex -36.4058 26.4503 0
      vertex -31.8198 31.8198 6
      vertex -31.8198 31.8198 0
    endloop
  endfacet
  facet normal -0.760405 0.649449 0
    outer loop
      vertex -31.8198 31.8198 6
      vertex -36.4058 26.4503 0
      vertex -36.4058 26.4503 6
    endloop
  endfacet
  facet normal 0.923882 -0.382678 0
    outer loop
      vertex 40.0953 -20.4296 6
      vertex 42.7975 -13.9058 0
      vertex 42.7975 -13.9058 6
    endloop
  endfacet
  facet normal 0.923882 -0.382678 0
    outer loop
      vertex 42.7975 -13.9058 0
      vertex 40.0953 -20.4296 6
      vertex 40.0953 -20.4296 0
    endloop
  endfacet
  facet normal 0.760405 -0.649449 0
    outer loop
      vertex 31.8198 -31.8198 6
      vertex 36.4058 -26.4503 0
      vertex 36.4058 -26.4503 6
    endloop
  endfacet
  facet normal 0.760405 -0.649449 0
    outer loop
      vertex 36.4058 -26.4503 0
      vertex 31.8198 -31.8198 6
      vertex 31.8198 -31.8198 0
    endloop
  endfacet
  facet normal -0.85264 0.5225 0
    outer loop
      vertex -40.0953 20.4296 0
      vertex -36.4058 26.4503 6
      vertex -36.4058 26.4503 0
    endloop
  endfacet
  facet normal -0.85264 0.5225 0
    outer loop
      vertex -36.4058 26.4503 6
      vertex -40.0953 20.4296 0
      vertex -40.0953 20.4296 6
    endloop
  endfacet
  facet normal -0.5225 0.85264 0
    outer loop
      vertex -20.4296 40.0953 0
      vertex -26.4503 36.4058 6
      vertex -20.4296 40.0953 6
    endloop
  endfacet
  facet normal -0.5225 0.85264 0
    outer loop
      vertex -26.4503 36.4058 6
      vertex -20.4296 40.0953 0
      vertex -26.4503 36.4058 0
    endloop
  endfacet
  facet normal 0.85264 -0.5225 0
    outer loop
      vertex 36.4058 -26.4503 6
      vertex 40.0953 -20.4296 0
      vertex 40.0953 -20.4296 6
    endloop
  endfacet
  facet normal 0.85264 -0.5225 0
    outer loop
      vertex 40.0953 -20.4296 0
      vertex 36.4058 -26.4503 6
      vertex 36.4058 -26.4503 0
    endloop
  endfacet
  facet normal 0.5225 0.85264 -0
    outer loop
      vertex 26.4503 36.4058 0
      vertex 20.4296 40.0953 6
      vertex 26.4503 36.4058 6
    endloop
  endfacet
  facet normal 0.5225 0.85264 0
    outer loop
      vertex 20.4296 40.0953 6
      vertex 26.4503 36.4058 0
      vertex 20.4296 40.0953 0
    endloop
  endfacet
  facet normal -0.996918 -0.0784556 0
    outer loop
      vertex -44.446 -7.03955 0
      vertex -45 0 6
      vertex -45 0 0
    endloop
  endfacet
  facet normal -0.996918 -0.0784556 0
    outer loop
      vertex -45 0 6
      vertex -44.446 -7.03955 0
      vertex -44.446 -7.03955 6
    endloop
  endfacet
  facet normal -0.0784556 -0.996918 0
    outer loop
      vertex -7.03955 -44.446 0
      vertex 0 -45 2
      vertex -7.03955 -44.446 2
    endloop
  endfacet
  facet normal -0.0784556 -0.996918 -0
    outer loop
      vertex 0 -45 2
      vertex -7.03955 -44.446 0
      vertex 0 -45 0
    endloop
  endfacet
  facet normal -0.0784556 -0.996918 0
    outer loop
      vertex -7.03955 -44.446 4
      vertex 0 -45 6
      vertex -7.03955 -44.446 6
    endloop
  endfacet
  facet normal -0.0784556 -0.996918 -0
    outer loop
      vertex 0 -45 6
      vertex -7.03955 -44.446 4
      vertex 0 -45 4
    endloop
  endfacet
  facet normal -0.649449 -0.760405 0
    outer loop
      vertex -31.8198 -31.8198 0
      vertex -26.4503 -36.4058 6
      vertex -31.8198 -31.8198 6
    endloop
  endfacet
  facet normal -0.649449 -0.760405 -0
    outer loop
      vertex -26.4503 -36.4058 6
      vertex -31.8198 -31.8198 0
      vertex -26.4503 -36.4058 0
    endloop
  endfacet
  facet normal -0.382678 0.923882 0
    outer loop
      vertex -13.9058 42.7975 0
      vertex -20.4296 40.0953 6
      vertex -13.9058 42.7975 6
    endloop
  endfacet
  facet normal -0.382678 0.923882 0
    outer loop
      vertex -20.4296 40.0953 6
      vertex -13.9058 42.7975 0
      vertex -20.4296 40.0953 0
    endloop
  endfacet
  facet normal -0.972368 -0.233453 0
    outer loop
      vertex -42.7975 -13.9058 0
      vertex -44.446 -7.03955 6
      vertex -44.446 -7.03955 0
    endloop
  endfacet
  facet normal -0.972368 -0.233453 0
    outer loop
      vertex -44.446 -7.03955 6
      vertex -42.7975 -13.9058 0
      vertex -42.7975 -13.9058 6
    endloop
  endfacet
  facet normal -0.972368 0.233453 0
    outer loop
      vertex -44.446 7.03955 0
      vertex -42.7975 13.9058 6
      vertex -42.7975 13.9058 0
    endloop
  endfacet
  facet normal -0.972368 0.233453 0
    outer loop
      vertex -42.7975 13.9058 6
      vertex -44.446 7.03955 0
      vertex -44.446 7.03955 6
    endloop
  endfacet
  facet normal -0.996918 0.0784556 0
    outer loop
      vertex -45 0 0
      vertex -44.446 7.03955 6
      vertex -44.446 7.03955 0
    endloop
  endfacet
  facet normal -0.996918 0.0784556 0
    outer loop
      vertex -44.446 7.03955 6
      vertex -45 0 0
      vertex -45 0 6
    endloop
  endfacet
  facet normal -0.382678 -0.923882 0
    outer loop
      vertex -20.4296 -40.0953 0
      vertex -13.9058 -42.7975 6
      vertex -20.4296 -40.0953 6
    endloop
  endfacet
  facet normal -0.382678 -0.923882 -0
    outer loop
      vertex -13.9058 -42.7975 6
      vertex -20.4296 -40.0953 0
      vertex -13.9058 -42.7975 0
    endloop
  endfacet
  facet normal 0.649449 0.760405 -0
    outer loop
      vertex 31.8198 31.8198 0
      vertex 26.4503 36.4058 6
      vertex 31.8198 31.8198 6
    endloop
  endfacet
  facet normal 0.649449 0.760405 0
    outer loop
      vertex 26.4503 36.4058 6
      vertex 31.8198 31.8198 0
      vertex 26.4503 36.4058 0
    endloop
  endfacet
  facet normal -0.649449 0.760405 0
    outer loop
      vertex -26.4503 36.4058 0
      vertex -31.8198 31.8198 6
      vertex -26.4503 36.4058 6
    endloop
  endfacet
  facet normal -0.649449 0.760405 0
    outer loop
      vertex -31.8198 31.8198 6
      vertex -26.4503 36.4058 0
      vertex -31.8198 31.8198 0
    endloop
  endfacet
  facet normal 0.996918 -0.0784556 0
    outer loop
      vertex 44.446 -7.03955 6
      vertex 45 0 0
      vertex 45 0 6
    endloop
  endfacet
  facet normal 0.996918 -0.0784556 0
    outer loop
      vertex 45 0 0
      vertex 44.446 -7.03955 6
      vertex 44.446 -7.03955 0
    endloop
  endfacet
  facet normal 0.760405 0.649449 0
    outer loop
      vertex 36.4058 26.4503 6
      vertex 31.8198 31.8198 0
      vertex 31.8198 31.8198 6
    endloop
  endfacet
  facet normal 0.760405 0.649449 0
    outer loop
      vertex 31.8198 31.8198 0
      vertex 36.4058 26.4503 6
      vertex 36.4058 26.4503 0
    endloop
  endfacet
  facet normal 0.382678 -0.923882 0
    outer loop
      vertex 13.9058 -42.7975 0
      vertex 20.4296 -40.0953 6
      vertex 13.9058 -42.7975 6
    endloop
  endfacet
  facet normal 0.382678 -0.923882 0
    outer loop
      vertex 20.4296 -40.0953 6
      vertex 13.9058 -42.7975 0
      vertex 20.4296 -40.0953 0
    endloop
  endfacet
  facet normal -0.5225 -0.85264 0
    outer loop
      vertex -26.4503 -36.4058 0
      vertex -20.4296 -40.0953 6
      vertex -26.4503 -36.4058 6
    endloop
  endfacet
  facet normal -0.5225 -0.85264 -0
    outer loop
      vertex -20.4296 -40.0953 6
      vertex -26.4503 -36.4058 0
      vertex -20.4296 -40.0953 0
    endloop
  endfacet
  facet normal 0.5225 -0.85264 0
    outer loop
      vertex 20.4296 -40.0953 0
      vertex 26.4503 -36.4058 6
      vertex 20.4296 -40.0953 6
    endloop
  endfacet
  facet normal 0.5225 -0.85264 0
    outer loop
      vertex 26.4503 -36.4058 6
      vertex 20.4296 -40.0953 0
      vertex 26.4503 -36.4058 0
    endloop
  endfacet
  facet normal 0 0 1
    outer loop
      vertex 35 0 6
      vertex 45 0 6
      vertex 44.446 7.03955 6
    endloop
  endfacet
  facet normal 0 0 1
    outer loop
      vertex 34.5691 5.47521 6
      vertex 44.446 7.03955 6
      vertex 42.7975 13.9058 6
    endloop
  endfacet
  facet normal 0 0 1
    outer loop
      vertex 45 0 6
      vertex 35 0 6
      vertex 44.446 -7.03955 6
    endloop
  endfacet
  facet normal 0 0 1
    outer loop
      vertex 33.287 10.8156 6
      vertex 42.7975 13.9058 6
      vertex 40.0953 20.4296 6
    endloop
  endfacet
  facet normal -0 0 1
    outer loop
      vertex 34.5691 -5.47521 6
      vertex 44.446 -7.03955 6
      vertex 35 0 6
    endloop
  endfacet
  facet normal 0 0 1
    outer loop
      vertex 31.1852 15.8897 6
      vertex 40.0953 20.4296 6
      vertex 36.4058 26.4503 6
    endloop
  endfacet
  facet normal 0 0 1
    outer loop
      vertex 44.446 -7.03955 6
      vertex 34.5691 -5.47521 6
      vertex 42.7975 -13.9058 6
    endloop
  endfacet
  facet normal -0 0 1
    outer loop
      vertex 33.287 -10.8156 6
      vertex 42.7975 -13.9058 6
      vertex 34.5691 -5.47521 6
    endloop
  endfacet
  facet normal 0 0 1
    outer loop
      vertex 44.446 7.03955 6
      vertex 34.5691 5.47521 6
      vertex 35 0 6
    endloop
  endfacet
  facet normal 0 0 1
    outer loop
      vertex 42.7975 13.9058 6
      vertex 33.287 10.8156 6
      vertex 34.5691 5.47521 6
    endloop
  endfacet
  facet normal 0 0 1
    outer loop
      vertex 28.3156 20.5725 6
      vertex 36.4058 26.4503 6
      vertex 31.8198 31.8198 6
    endloop
  endfacet
  facet normal 0 0 1
    outer loop
      vertex 40.0953 20.4296 6
      vertex 31.1852 15.8897 6
      vertex 33.287 10.8156 6
    endloop
  endfacet
  facet normal 0 0 1
    outer loop
      vertex 36.4058 26.4503 6
      vertex 28.3156 20.5725 6
      vertex 31.1852 15.8897 6
    endloop
  endfacet
  facet normal 0 0 1
    outer loop
      vertex 24.7487 24.7487 6
      vertex 31.8198 31.8198 6
      vertex 26.4503 36.4058 6
    endloop
  endfacet
  facet normal 0 0 1
    outer loop
      vertex 31.8198 31.8198 6
      vertex 24.7487 24.7487 6
      vertex 28.3156 20.5725 6
    endloop
  endfacet
  facet normal 0 0 1
    outer loop
      vertex 26.4503 36.4058 6
      vertex 20.5725 28.3156 6
      vertex 24.7487 24.7487 6
    endloop
  endfacet
  facet normal 0 0 1
    outer loop
      vertex 20.4296 40.0953 6
      vertex 20.5725 28.3156 6
      vertex 26.4503 36.4058 6
    endloop
  endfacet
  facet normal 0 0 1
    outer loop
      vertex 20.4296 40.0953 6
      vertex 15.8897 31.1852 6
      vertex 20.5725 28.3156 6
    endloop
  endfacet
  facet normal 0 0 1
    outer loop
      vertex 13.9058 42.7975 6
      vertex 15.8897 31.1852 6
      vertex 20.4296 40.0953 6
    endloop
  endfacet
  facet normal 0 0 1
    outer loop
      vertex 13.9058 42.7975 6
      vertex 10.8156 33.287 6
      vertex 15.8897 31.1852 6
    endloop
  endfacet
  facet normal 0 0 1
    outer loop
      vertex 7.03955 44.446 6
      vertex 10.8156 33.287 6
      vertex 13.9058 42.7975 6
    endloop
  endfacet
  facet normal 0 0 1
    outer loop
      vertex 7.03955 44.446 6
      vertex 5.47521 34.5691 6
      vertex 10.8156 33.287 6
    endloop
  endfacet
  facet normal 0 0 1
    outer loop
      vertex 0 45 6
      vertex 5.47521 34.5691 6
      vertex 7.03955 44.446 6
    endloop
  endfacet
  facet normal 0 0 1
    outer loop
      vertex 0 45 6
      vertex 0 35 6
      vertex 5.47521 34.5691 6
    endloop
  endfacet
  facet normal 0 0 1
    outer loop
      vertex 0 45 6
      vertex -5.47521 34.5691 6
      vertex 0 35 6
    endloop
  endfacet
  facet normal -0 0 1
    outer loop
      vertex -7.03955 44.446 6
      vertex -5.47521 34.5691 6
      vertex 0 45 6
    endloop
  endfacet
  facet normal 0 0 1
    outer loop
      vertex -7.03955 44.446 6
      vertex -10.8156 33.287 6
      vertex -5.47521 34.5691 6
    endloop
  endfacet
  facet normal -0 0 1
    outer loop
      vertex -13.9058 42.7975 6
      vertex -10.8156 33.287 6
      vertex -7.03955 44.446 6
    endloop
  endfacet
  facet normal 0 0 1
    outer loop
      vertex -13.9058 42.7975 6
      vertex -15.8897 31.1852 6
      vertex -10.8156 33.287 6
    endloop
  endfacet
  facet normal -0 0 1
    outer loop
      vertex -20.4296 40.0953 6
      vertex -15.8897 31.1852 6
      vertex -13.9058 42.7975 6
    endloop
  endfacet
  facet normal 0 0 1
    outer loop
      vertex -20.4296 40.0953 6
      vertex -20.5725 28.3156 6
      vertex -15.8897 31.1852 6
    endloop
  endfacet
  facet normal -0 0 1
    outer loop
      vertex -26.4503 36.4058 6
      vertex -20.5725 28.3156 6
      vertex -20.4296 40.0953 6
    endloop
  endfacet
  facet normal 0 0 1
    outer loop
      vertex -20.5725 28.3156 6
      vertex -26.4503 36.4058 6
      vertex -24.7487 24.7487 6
    endloop
  endfacet
  facet normal -0 0 1
    outer loop
      vertex -31.8198 31.8198 6
      vertex -24.7487 24.7487 6
      vertex -26.4503 36.4058 6
    endloop
  endfacet
  facet normal 0 0 1
    outer loop
      vertex -24.7487 24.7487 6
      vertex -31.8198 31.8198 6
      vertex -28.3156 20.5725 6
    endloop
  endfacet
  facet normal -0 0 1
    outer loop
      vertex -36.4058 26.4503 6
      vertex -28.3156 20.5725 6
      vertex -31.8198 31.8198 6
    endloop
  endfacet
  facet normal 0 0 1
    outer loop
      vertex -28.3156 20.5725 6
      vertex -36.4058 26.4503 6
      vertex -31.1852 15.8897 6
    endloop
  endfacet
  facet normal -0 0 1
    outer loop
      vertex -40.0953 20.4296 6
      vertex -31.1852 15.8897 6
      vertex -36.4058 26.4503 6
    endloop
  endfacet
  facet normal -0 0 1
    outer loop
      vertex -42.7975 13.9058 6
      vertex -33.287 10.8156 6
      vertex -40.0953 20.4296 6
    endloop
  endfacet
  facet normal 0 0 1
    outer loop
      vertex -31.1852 15.8897 6
      vertex -40.0953 20.4296 6
      vertex -33.287 10.8156 6
    endloop
  endfacet
  facet normal 0 0 1
    outer loop
      vertex 42.7975 -13.9058 6
      vertex 33.287 -10.8156 6
      vertex 40.0953 -20.4296 6
    endloop
  endfacet
  facet normal -0 0 1
    outer loop
      vertex 31.1852 -15.8897 6
      vertex 40.0953 -20.4296 6
      vertex 33.287 -10.8156 6
    endloop
  endfacet
  facet normal 0 0 1
    outer loop
      vertex 40.0953 -20.4296 6
      vertex 31.1852 -15.8897 6
      vertex 36.4058 -26.4503 6
    endloop
  endfacet
  facet normal -0 0 1
    outer loop
      vertex 28.3156 -20.5725 6
      vertex 36.4058 -26.4503 6
      vertex 31.1852 -15.8897 6
    endloop
  endfacet
  facet normal 0 0 1
    outer loop
      vertex 36.4058 -26.4503 6
      vertex 28.3156 -20.5725 6
      vertex 31.8198 -31.8198 6
    endloop
  endfacet
  facet normal -0 0 1
    outer loop
      vertex 24.7487 -24.7487 6
      vertex 31.8198 -31.8198 6
      vertex 28.3156 -20.5725 6
    endloop
  endfacet
  facet normal 0 0 1
    outer loop
      vertex 31.8198 -31.8198 6
      vertex 24.7487 -24.7487 6
      vertex 26.4503 -36.4058 6
    endloop
  endfacet
  facet normal -0 0 1
    outer loop
      vertex 20.5725 -28.3156 6
      vertex 26.4503 -36.4058 6
      vertex 24.7487 -24.7487 6
    endloop
  endfacet
  facet normal 0 0 1
    outer loop
      vertex 20.5725 -28.3156 6
      vertex 20.4296 -40.0953 6
      vertex 26.4503 -36.4058 6
    endloop
  endfacet
  facet normal -0 0 1
    outer loop
      vertex 15.8897 -31.1852 6
      vertex 20.4296 -40.0953 6
      vertex 20.5725 -28.3156 6
    endloop
  endfacet
  facet normal 0 0 1
    outer loop
      vertex 15.8897 -31.1852 6
      vertex 13.9058 -42.7975 6
      vertex 20.4296 -40.0953 6
    endloop
  endfacet
  facet normal -0 0 1
    outer loop
      vertex 10.8156 -33.287 6
      vertex 13.9058 -42.7975 6
      vertex 15.8897 -31.1852 6
    endloop
  endfacet
  facet normal 0 0 1
    outer loop
      vertex 10.8156 -33.287 6
      vertex 7.03955 -44.446 6
      vertex 13.9058 -42.7975 6
    endloop
  endfacet
  facet normal -0 0 1
    outer loop
      vertex 5.47521 -34.5691 6
      vertex 7.03955 -44.446 6
      vertex 10.8156 -33.287 6
    endloop
  endfacet
  facet normal -0 0 1
    outer loop
      vertex 0 -35 6
      vertex 7.03955 -44.446 6
      vertex 5.47521 -34.5691 6
    endloop
  endfacet
  facet normal 0 0 1
    outer loop
      vertex 0 -35 6
      vertex 0 -45 6
      vertex 7.03955 -44.446 6
    endloop
  endfacet
  facet normal 0 0 1
    outer loop
      vertex -5.47521 -34.5691 6
      vertex 0 -45 6
      vertex 0 -35 6
    endloop
  endfacet
  facet normal 0 0 1
    outer loop
      vertex -5.47521 -34.5691 6
      vertex -7.03955 -44.446 6
      vertex 0 -45 6
    endloop
  endfacet
  facet normal 0 0 1
    outer loop
      vertex -10.8156 -33.287 6
      vertex -7.03955 -44.446 6
      vertex -5.47521 -34.5691 6
    endloop
  endfacet
  facet normal 0 0 1
    outer loop
      vertex -10.8156 -33.287 6
      vertex -13.9058 -42.7975 6
      vertex -7.03955 -44.446 6
    endloop
  endfacet
  facet normal 0 0 1
    outer loop
      vertex -15.8897 -31.1852 6
      vertex -13.9058 -42.7975 6
      vertex -10.8156 -33.287 6
    endloop
  endfacet
  facet normal 0 0 1
    outer loop
      vertex -15.8897 -31.1852 6
      vertex -20.4296 -40.0953 6
      vertex -13.9058 -42.7975 6
    endloop
  endfacet
  facet normal 0 0 1
    outer loop
      vertex -20.5725 -28.3156 6
      vertex -20.4296 -40.0953 6
      vertex -15.8897 -31.1852 6
    endloop
  endfacet
  facet normal 0 0 1
    outer loop
      vertex -26.4503 -36.4058 6
      vertex -20.5725 -28.3156 6
      vertex -24.7487 -24.7487 6
    endloop
  endfacet
  facet normal 0 0 1
    outer loop
      vertex -20.5725 -28.3156 6
      vertex -26.4503 -36.4058 6
      vertex -20.4296 -40.0953 6
    endloop
  endfacet
  facet normal 0 0 1
    outer loop
      vertex -31.8198 -31.8198 6
      vertex -24.7487 -24.7487 6
      vertex -28.3156 -20.5725 6
    endloop
  endfacet
  facet normal 0 0 1
    outer loop
      vertex -36.4058 -26.4503 6
      vertex -28.3156 -20.5725 6
      vertex -31.1852 -15.8897 6
    endloop
  endfacet
  facet normal 0 0 1
    outer loop
      vertex -24.7487 -24.7487 6
      vertex -31.8198 -31.8198 6
      vertex -26.4503 -36.4058 6
    endloop
  endfacet
  facet normal 0 0 1
    outer loop
      vertex -40.0953 -20.4296 6
      vertex -31.1852 -15.8897 6
      vertex -33.287 -10.8156 6
    endloop
  endfacet
  facet normal 0 0 1
    outer loop
      vertex -42.7975 -13.9058 6
      vertex -33.287 -10.8156 6
      vertex -34.5691 -5.47521 6
    endloop
  endfacet
  facet normal 0 0 1
    outer loop
      vertex -28.3156 -20.5725 6
      vertex -36.4058 -26.4503 6
      vertex -31.8198 -31.8198 6
    endloop
  endfacet
  facet normal 0 0 1
    outer loop
      vertex -44.446 -7.03955 6
      vertex -34.5691 -5.47521 6
      vertex -35 0 6
    endloop
  endfacet
  facet normal 0 0 1
    outer loop
      vertex -33.287 10.8156 6
      vertex -42.7975 13.9058 6
      vertex -34.5691 5.47521 6
    endloop
  endfacet
  facet normal -0 0 1
    outer loop
      vertex -44.446 7.03955 6
      vertex -34.5691 5.47521 6
      vertex -42.7975 13.9058 6
    endloop
  endfacet
  facet normal 0 0 1
    outer loop
      vertex -31.1852 -15.8897 6
      vertex -40.0953 -20.4296 6
      vertex -36.4058 -26.4503 6
    endloop
  endfacet
  facet normal 0 0 1
    outer loop
      vertex -34.5691 5.47521 6
      vertex -44.446 7.03955 6
      vertex -35 0 6
    endloop
  endfacet
  facet normal 0 0 1
    outer loop
      vertex -33.287 -10.8156 6
      vertex -42.7975 -13.9058 6
      vertex -40.0953 -20.4296 6
    endloop
  endfacet
  facet normal 0 0 1
    outer loop
      vertex -45 0 6
      vertex -35 0 6
      vertex -44.446 7.03955 6
    endloop
  endfacet
  facet normal 0 0 1
    outer loop
      vertex -34.5691 -5.47521 6
      vertex -44.446 -7.03955 6
      vertex -42.7975 -13.9058 6
    endloop
  endfacet
  facet normal 0 0 1
    outer loop
      vertex -35 0 6
      vertex -45 0 6
      vertex -44.446 -7.03955 6
    endloop
  endfacet
  facet normal 0.85264 0.5225 0
    outer loop
      vertex 40.0953 20.4296 6
      vertex 36.4058 26.4503 0
      vertex 36.4058 26.4503 6
    endloop
  endfacet
  facet normal 0.85264 0.5225 0
    outer loop
      vertex 36.4058 26.4503 0
      vertex 40.0953 20.4296 6
      vertex 40.0953 20.4296 0
    endloop
  endfacet
  facet normal -0.233464 0.972366 0
    outer loop
      vertex -7.03955 44.446 2
      vertex -7.03955 44.446 0
      vertex -10 43.7352 2
    endloop
  endfacet
  facet normal -0.233464 0.972366 0
    outer loop
      vertex -10 43.7352 4
      vertex -7.03955 44.446 6
      vertex -7.03955 44.446 4
    endloop
  endfacet
  facet normal -0.233453 0.972368 -1.6192e-05
    outer loop
      vertex -7.03955 44.446 6
      vertex -10 43.7352 4
      vertex -13.9058 42.7975 6
    endloop
  endfacet
  facet normal -0.233445 0.97237 0
    outer loop
      vertex -10 43.7352 2
      vertex -13.9058 42.7975 6
      vertex -10 43.7352 4
    endloop
  endfacet
  facet normal -0.233445 0.97237 0
    outer loop
      vertex -10 43.7352 2
      vertex -13.9058 42.7975 0
      vertex -13.9058 42.7975 6
    endloop
  endfacet
  facet normal -0.233453 0.972368 1.6192e-05
    outer loop
      vertex -13.9058 42.7975 0
      vertex -10 43.7352 2
      vertex -7.03955 44.446 0
    endloop
  endfacet
  facet normal 0.233464 -0.972366 0
    outer loop
      vertex 7.03955 -44.446 2
      vertex 7.03955 -44.446 0
      vertex 10 -43.7352 2
    endloop
  endfacet
  facet normal 0.233464 -0.972366 0
    outer loop
      vertex 10 -43.7352 4
      vertex 7.03955 -44.446 6
      vertex 7.03955 -44.446 4
    endloop
  endfacet
  facet normal 0.233453 -0.972368 -1.6192e-05
    outer loop
      vertex 7.03955 -44.446 6
      vertex 10 -43.7352 4
      vertex 13.9058 -42.7975 6
    endloop
  endfacet
  facet normal 0.233445 -0.97237 0
    outer loop
      vertex 10 -43.7352 2
      vertex 13.9058 -42.7975 6
      vertex 10 -43.7352 4
    endloop
  endfacet
  facet normal 0.233445 -0.97237 0
    outer loop
      vertex 10 -43.7352 2
      vertex 13.9058 -42.7975 0
      vertex 13.9058 -42.7975 6
    endloop
  endfacet
  facet normal 0.233453 -0.972368 1.6192e-05
    outer loop
      vertex 13.9058 -42.7975 0
      vertex 10 -43.7352 2
      vertex 7.03955 -44.446 0
    endloop
  endfacet
  facet normal 0 0 -1
    outer loop
      vertex 5 0 0
      vertex 45 0 0
      vertex 44.446 -7.03955 0
    endloop
  endfacet
  facet normal 0 0 -1
    outer loop
      vertex 4.93844 -0.782172 0
      vertex 44.446 -7.03955 0
      vertex 42.7975 -13.9058 0
    endloop
  endfacet
  facet normal 0 0 -1
    outer loop
      vertex 45 0 0
      vertex 5 0 0
      vertex 44.446 7.03955 0
    endloop
  endfacet
  facet normal 0 0 -1
    outer loop
      vertex 4.75528 -1.54508 0
      vertex 42.7975 -13.9058 0
      vertex 40.0953 -20.4296 0
    endloop
  endfacet
  facet normal 0 0 -1
    outer loop
      vertex 4.93844 0.782172 0
      vertex 44.446 7.03955 0
      vertex 5 0 0
    endloop
  endfacet
  facet normal 0 0 -1
    outer loop
      vertex 4.45503 -2.26995 0
      vertex 40.0953 -20.4296 0
      vertex 36.4058 -26.4503 0
    endloop
  endfacet
  facet normal -0 0 -1
    outer loop
      vertex 44.446 7.03955 0
      vertex 4.93844 0.782172 0
      vertex 42.7975 13.9058 0
    endloop
  endfacet
  facet normal 0 0 -1
    outer loop
      vertex 4.04508 -2.93893 0
      vertex 36.4058 -26.4503 0
      vertex 31.8198 -31.8198 0
    endloop
  endfacet
  facet normal 0 0 -1
    outer loop
      vertex 4.75528 1.54508 0
      vertex 42.7975 13.9058 0
      vertex 4.93844 0.782172 0
    endloop
  endfacet
  facet normal 0 0 -1
    outer loop
      vertex 3.53553 -3.53553 0
      vertex 31.8198 -31.8198 0
      vertex 26.4503 -36.4058 0
    endloop
  endfacet
  facet normal -0 0 -1
    outer loop
      vertex 42.7975 13.9058 0
      vertex 4.75528 1.54508 0
      vertex 40.0953 20.4296 0
    endloop
  endfacet
  facet normal 0 0 -1
    outer loop
      vertex 2.93893 -4.04508 0
      vertex 26.4503 -36.4058 0
      vertex 20.4296 -40.0953 0
    endloop
  endfacet
  facet normal 0 0 -1
    outer loop
      vertex 4.45503 2.26995 0
      vertex 40.0953 20.4296 0
      vertex 4.75528 1.54508 0
    endloop
  endfacet
  facet normal 0 0 -1
    outer loop
      vertex 2.26995 -4.45503 0
      vertex 20.4296 -40.0953 0
      vertex 13.9058 -42.7975 0
    endloop
  endfacet
  facet normal -0 0 -1
    outer loop
      vertex 40.0953 20.4296 0
      vertex 4.45503 2.26995 0
      vertex 36.4058 26.4503 0
    endloop
  endfacet
  facet normal 0 0 -1
    outer loop
      vertex 1.54508 -4.75528 0
      vertex 13.9058 -42.7975 0
      vertex 7.03955 -44.446 0
    endloop
  endfacet
  facet normal 0 0 -1
    outer loop
      vertex 4.04508 2.93893 0
      vertex 36.4058 26.4503 0
      vertex 4.45503 2.26995 0
    endloop
  endfacet
  facet normal -0 0 -1
    outer loop
      vertex 36.4058 26.4503 0
      vertex 4.04508 2.93893 0
      vertex 31.8198 31.8198 0
    endloop
  endfacet
  facet normal 0 0 -1
    outer loop
      vertex 44.446 -7.03955 0
      vertex 4.93844 -0.782172 0
      vertex 5 0 0
    endloop
  endfacet
  facet normal 0 0 -1
    outer loop
      vertex 42.7975 -13.9058 0
      vertex 4.75528 -1.54508 0
      vertex 4.93844 -0.782172 0
    endloop
  endfacet
  facet normal 0 0 -1
    outer loop
      vertex 40.0953 -20.4296 0
      vertex 4.45503 -2.26995 0
      vertex 4.75528 -1.54508 0
    endloop
  endfacet
  facet normal 0 0 -1
    outer loop
      vertex 36.4058 -26.4503 0
      vertex 4.04508 -2.93893 0
      vertex 4.45503 -2.26995 0
    endloop
  endfacet
  facet normal 0 0 -1
    outer loop
      vertex 31.8198 -31.8198 0
      vertex 3.53553 -3.53553 0
      vertex 4.04508 -2.93893 0
    endloop
  endfacet
  facet normal 0 0 -1
    outer loop
      vertex 26.4503 -36.4058 0
      vertex 2.93893 -4.04508 0
      vertex 3.53553 -3.53553 0
    endloop
  endfacet
  facet normal 0 0 -1
    outer loop
      vertex 20.4296 -40.0953 0
      vertex 2.26995 -4.45503 0
      vertex 2.93893 -4.04508 0
    endloop
  endfacet
  facet normal 0 0 -1
    outer loop
      vertex 13.9058 -42.7975 0
      vertex 1.54508 -4.75528 0
      vertex 2.26995 -4.45503 0
    endloop
  endfacet
  facet normal 0 0 -1
    outer loop
      vertex 7.03955 -44.446 0
      vertex 0.782172 -4.93844 0
      vertex 1.54508 -4.75528 0
    endloop
  endfacet
  facet normal 0 0 -1
    outer loop
      vertex 0 -45 0
      vertex 0.782172 -4.93844 0
      vertex 7.03955 -44.446 0
    endloop
  endfacet
  facet normal 0 0 -1
    outer loop
      vertex 0 -45 0
      vertex 0 -5 0
      vertex 0.782172 -4.93844 0
    endloop
  endfacet
  facet normal 0 0 -1
    outer loop
      vertex 0 -45 0
      vertex -0.782172 -4.93844 0
      vertex 0 -5 0
    endloop
  endfacet
  facet normal 0 0 -1
    outer loop
      vertex -7.03955 -44.446 0
      vertex -0.782172 -4.93844 0
      vertex 0 -45 0
    endloop
  endfacet
  facet normal -0 0 -1
    outer loop
      vertex -0.782172 -4.93844 0
      vertex -7.03955 -44.446 0
      vertex -1.54508 -4.75528 0
    endloop
  endfacet
  facet normal 0 0 -1
    outer loop
      vertex -13.9058 -42.7975 0
      vertex -1.54508 -4.75528 0
      vertex -7.03955 -44.446 0
    endloop
  endfacet
  facet normal -0 0 -1
    outer loop
      vertex -1.54508 -4.75528 0
      vertex -13.9058 -42.7975 0
      vertex -2.26995 -4.45503 0
    endloop
  endfacet
  facet normal 0 0 -1
    outer loop
      vertex -20.4296 -40.0953 0
      vertex -2.26995 -4.45503 0
      vertex -13.9058 -42.7975 0
    endloop
  endfacet
  facet normal -0 0 -1
    outer loop
      vertex -2.26995 -4.45503 0
      vertex -20.4296 -40.0953 0
      vertex -2.93893 -4.04508 0
    endloop
  endfacet
  facet normal 0 0 -1
    outer loop
      vertex -26.4503 -36.4058 0
      vertex -2.93893 -4.04508 0
      vertex -20.4296 -40.0953 0
    endloop
  endfacet
  facet normal -0 0 -1
    outer loop
      vertex -2.93893 -4.04508 0
      vertex -26.4503 -36.4058 0
      vertex -3.53553 -3.53553 0
    endloop
  endfacet
  facet normal -0 0 -1
    outer loop
      vertex -3.53553 -3.53553 0
      vertex -31.8198 -31.8198 0
      vertex -4.04508 -2.93893 0
    endloop
  endfacet
  facet normal 0 0 -1
    outer loop
      vertex -31.8198 -31.8198 0
      vertex -3.53553 -3.53553 0
      vertex -26.4503 -36.4058 0
    endloop
  endfacet
  facet normal 0 0 -1
    outer loop
      vertex 3.53553 3.53553 0
      vertex 31.8198 31.8198 0
      vertex 4.04508 2.93893 0
    endloop
  endfacet
  facet normal -0 0 -1
    outer loop
      vertex 31.8198 31.8198 0
      vertex 3.53553 3.53553 0
      vertex 26.4503 36.4058 0
    endloop
  endfacet
  facet normal 0 0 -1
    outer loop
      vertex 2.93893 4.04508 0
      vertex 26.4503 36.4058 0
      vertex 3.53553 3.53553 0
    endloop
  endfacet
  facet normal -0 0 -1
    outer loop
      vertex 26.4503 36.4058 0
      vertex 2.93893 4.04508 0
      vertex 20.4296 40.0953 0
    endloop
  endfacet
  facet normal 0 0 -1
    outer loop
      vertex 2.26995 4.45503 0
      vertex 20.4296 40.0953 0
      vertex 2.93893 4.04508 0
    endloop
  endfacet
  facet normal -0 0 -1
    outer loop
      vertex 20.4296 40.0953 0
      vertex 2.26995 4.45503 0
      vertex 13.9058 42.7975 0
    endloop
  endfacet
  facet normal 0 0 -1
    outer loop
      vertex 1.54508 4.75528 0
      vertex 13.9058 42.7975 0
      vertex 2.26995 4.45503 0
    endloop
  endfacet
  facet normal -0 0 -1
    outer loop
      vertex 13.9058 42.7975 0
      vertex 1.54508 4.75528 0
      vertex 7.03955 44.446 0
    endloop
  endfacet
  facet normal 0 0 -1
    outer loop
      vertex 0.782172 4.93844 0
      vertex 7.03955 44.446 0
      vertex 1.54508 4.75528 0
    endloop
  endfacet
  facet normal 0 0 -1
    outer loop
      vertex 0 5 0
      vertex 7.03955 44.446 0
      vertex 0.782172 4.93844 0
    endloop
  endfacet
  facet normal 0 0 -1
    outer loop
      vertex 0 5 0
      vertex 0 45 0
      vertex 7.03955 44.446 0
    endloop
  endfacet
  facet normal 0 0 -1
    outer loop
      vertex -0.782172 4.93844 0
      vertex 0 45 0
      vertex 0 5 0
    endloop
  endfacet
  facet normal 0 0 -1
    outer loop
      vertex -7.03955 44.446 0
      vertex -0.782172 4.93844 0
      vertex -1.54508 4.75528 0
    endloop
  endfacet
  facet normal 0 0 -1
    outer loop
      vertex -13.9058 42.7975 0
      vertex -1.54508 4.75528 0
      vertex -2.26995 4.45503 0
    endloop
  endfacet
  facet normal 0 0 -1
    outer loop
      vertex -20.4296 40.0953 0
      vertex -2.26995 4.45503 0
      vertex -2.93893 4.04508 0
    endloop
  endfacet
  facet normal 0 0 -1
    outer loop
      vertex -26.4503 36.4058 0
      vertex -2.93893 4.04508 0
      vertex -3.53553 3.53553 0
    endloop
  endfacet
  facet normal 0 0 -1
    outer loop
      vertex -31.8198 31.8198 0
      vertex -3.53553 3.53553 0
      vertex -4.04508 2.93893 0
    endloop
  endfacet
  facet normal 0 0 -1
    outer loop
      vertex -36.4058 26.4503 0
      vertex -4.04508 2.93893 0
      vertex -4.45503 2.26995 0
    endloop
  endfacet
  facet normal 0 0 -1
    outer loop
      vertex -40.0953 20.4296 0
      vertex -4.45503 2.26995 0
      vertex -4.75528 1.54508 0
    endloop
  endfacet
  facet normal 0 0 -1
    outer loop
      vertex -42.7975 13.9058 0
      vertex -4.75528 1.54508 0
      vertex -4.93844 0.782172 0
    endloop
  endfacet
  facet normal 0 0 -1
    outer loop
      vertex -0.782172 4.93844 0
      vertex -7.03955 44.446 0
      vertex 0 45 0
    endloop
  endfacet
  facet normal 0 0 -1
    outer loop
      vertex -44.446 7.03955 0
      vertex -4.93844 0.782172 0
      vertex -5 0 0
    endloop
  endfacet
  facet normal 0 0 -1
    outer loop
      vertex -36.4058 -26.4503 0
      vertex -4.04508 -2.93893 0
      vertex -31.8198 -31.8198 0
    endloop
  endfacet
  facet normal -0 0 -1
    outer loop
      vertex -4.04508 -2.93893 0
      vertex -36.4058 -26.4503 0
      vertex -4.45503 -2.26995 0
    endloop
  endfacet
  facet normal 0 0 -1
    outer loop
      vertex -1.54508 4.75528 0
      vertex -13.9058 42.7975 0
      vertex -7.03955 44.446 0
    endloop
  endfacet
  facet normal 0 0 -1
    outer loop
      vertex -40.0953 -20.4296 0
      vertex -4.45503 -2.26995 0
      vertex -36.4058 -26.4503 0
    endloop
  endfacet
  facet normal 0 0 -1
    outer loop
      vertex -2.26995 4.45503 0
      vertex -20.4296 40.0953 0
      vertex -13.9058 42.7975 0
    endloop
  endfacet
  facet normal -0 0 -1
    outer loop
      vertex -4.45503 -2.26995 0
      vertex -40.0953 -20.4296 0
      vertex -4.75528 -1.54508 0
    endloop
  endfacet
  facet normal 0 0 -1
    outer loop
      vertex -2.93893 4.04508 0
      vertex -26.4503 36.4058 0
      vertex -20.4296 40.0953 0
    endloop
  endfacet
  facet normal 0 0 -1
    outer loop
      vertex -42.7975 -13.9058 0
      vertex -4.75528 -1.54508 0
      vertex -40.0953 -20.4296 0
    endloop
  endfacet
  facet normal 0 0 -1
    outer loop
      vertex -3.53553 3.53553 0
      vertex -31.8198 31.8198 0
      vertex -26.4503 36.4058 0
    endloop
  endfacet
  facet normal -0 0 -1
    outer loop
      vertex -4.75528 -1.54508 0
      vertex -42.7975 -13.9058 0
      vertex -4.93844 -0.782172 0
    endloop
  endfacet
  facet normal 0 0 -1
    outer loop
      vertex -4.04508 2.93893 0
      vertex -36.4058 26.4503 0
      vertex -31.8198 31.8198 0
    endloop
  endfacet
  facet normal 0 0 -1
    outer loop
      vertex -44.446 -7.03955 0
      vertex -4.93844 -0.782172 0
      vertex -42.7975 -13.9058 0
    endloop
  endfacet
  facet normal 0 0 -1
    outer loop
      vertex -4.45503 2.26995 0
      vertex -40.0953 20.4296 0
      vertex -36.4058 26.4503 0
    endloop
  endfacet
  facet normal -0 0 -1
    outer loop
      vertex -4.93844 -0.782172 0
      vertex -44.446 -7.03955 0
      vertex -5 0 0
    endloop
  endfacet
  facet normal 0 0 -1
    outer loop
      vertex -4.75528 1.54508 0
      vertex -42.7975 13.9058 0
      vertex -40.0953 20.4296 0
    endloop
  endfacet
  facet normal 0 0 -1
    outer loop
      vertex -45 0 0
      vertex -5 0 0
      vertex -44.446 -7.03955 0
    endloop
  endfacet
  facet normal 0 0 -1
    outer loop
      vertex -4.93844 0.782172 0
      vertex -44.446 7.03955 0
      vertex -42.7975 13.9058 0
    endloop
  endfacet
  facet normal 0 0 -1
    outer loop
      vertex -5 0 0
      vertex -45 0 0
      vertex -44.446 7.03955 0
    endloop
  endfacet
  facet normal -0.0784556 0.996918 0
    outer loop
      vertex 0 45 4
      vertex -7.03955 44.446 6
      vertex 0 45 6
    endloop
  endfacet
  facet normal -0.0784556 0.996918 0
    outer loop
      vertex -7.03955 44.446 6
      vertex 0 45 4
      vertex -7.03955 44.446 4
    endloop
  endfacet
  facet normal -0.0784556 0.996918 0
    outer loop
      vertex 0 45 0
      vertex -7.03955 44.446 2
      vertex 0 45 2
    endloop
  endfacet
  facet normal -0.0784556 0.996918 0
    outer loop
      vertex -7.03955 44.446 2
      vertex 0 45 0
      vertex -7.03955 44.446 0
    endloop
  endfacet
  facet normal -0.85264 -0.5225 0
    outer loop
      vertex -36.4058 -26.4503 0
      vertex -40.0953 -20.4296 6
      vertex -40.0953 -20.4296 0
    endloop
  endfacet
  facet normal -0.85264 -0.5225 0
    outer loop
      vertex -40.0953 -20.4296 6
      vertex -36.4058 -26.4503 0
      vertex -36.4058 -26.4503 6
    endloop
  endfacet
  facet normal -0.760405 -0.649449 0
    outer loop
      vertex -31.8198 -31.8198 0
      vertex -36.4058 -26.4503 6
      vertex -36.4058 -26.4503 0
    endloop
  endfacet
  facet normal -0.760405 -0.649449 0
    outer loop
      vertex -36.4058 -26.4503 6
      vertex -31.8198 -31.8198 0
      vertex -31.8198 -31.8198 6
    endloop
  endfacet
  facet normal 0.0784556 0.996918 -0
    outer loop
      vertex 7.03955 44.446 4
      vertex 0 45 6
      vertex 7.03955 44.446 6
    endloop
  endfacet
  facet normal 0.0784556 0.996918 0
    outer loop
      vertex 0 45 6
      vertex 7.03955 44.446 4
      vertex 0 45 4
    endloop
  endfacet
  facet normal 0.0784556 0.996918 -0
    outer loop
      vertex 7.03955 44.446 0
      vertex 0 45 2
      vertex 7.03955 44.446 2
    endloop
  endfacet
  facet normal 0.0784556 0.996918 0
    outer loop
      vertex 0 45 2
      vertex 7.03955 44.446 0
      vertex 0 45 0
    endloop
  endfacet
  facet normal 0.649449 -0.760405 0
    outer loop
      vertex 26.4503 -36.4058 0
      vertex 31.8198 -31.8198 6
      vertex 26.4503 -36.4058 6
    endloop
  endfacet
  facet normal 0.649449 -0.760405 0
    outer loop
      vertex 31.8198 -31.8198 6
      vertex 26.4503 -36.4058 0
      vertex 31.8198 -31.8198 0
    endloop
  endfacet
  facet normal 0.233453 0.972368 -1.6192e-05
    outer loop
      vertex 13.9058 42.7975 6
      vertex 10 43.7352 4
      vertex 7.03955 44.446 6
    endloop
  endfacet
  facet normal 0.233445 0.97237 0
    outer loop
      vertex 13.9058 42.7975 6
      vertex 10 43.7352 2
      vertex 10 43.7352 4
    endloop
  endfacet
  facet normal 0.233445 0.97237 -0
    outer loop
      vertex 13.9058 42.7975 0
      vertex 10 43.7352 2
      vertex 13.9058 42.7975 6
    endloop
  endfacet
  facet normal 0.233453 0.972368 1.6192e-05
    outer loop
      vertex 7.03955 44.446 0
      vertex 10 43.7352 2
      vertex 13.9058 42.7975 0
    endloop
  endfacet
  facet normal 0.233464 0.972366 0
    outer loop
      vertex 10 43.7352 2
      vertex 7.03955 44.446 0
      vertex 7.03955 44.446 2
    endloop
  endfacet
  facet normal 0.233464 0.972366 0
    outer loop
      vertex 7.03955 44.446 6
      vertex 10 43.7352 4
      vertex 7.03955 44.446 4
    endloop
  endfacet
  facet normal 0.972368 -0.233453 0
    outer loop
      vertex 42.7975 -13.9058 6
      vertex 44.446 -7.03955 0
      vertex 44.446 -7.03955 6
    endloop
  endfacet
  facet normal 0.972368 -0.233453 0
    outer loop
      vertex 44.446 -7.03955 0
      vertex 42.7975 -13.9058 6
      vertex 42.7975 -13.9058 0
    endloop
  endfacet
  facet normal -0.923882 -0.382678 0
    outer loop
      vertex -40.0953 -20.4296 0
      vertex -42.7975 -13.9058 6
      vertex -42.7975 -13.9058 0
    endloop
  endfacet
  facet normal -0.923882 -0.382678 0
    outer loop
      vertex -42.7975 -13.9058 6
      vertex -40.0953 -20.4296 0
      vertex -40.0953 -20.4296 6
    endloop
  endfacet
  facet normal -0.233453 -0.972368 -1.6192e-05
    outer loop
      vertex -13.9058 -42.7975 6
      vertex -10 -43.7352 4
      vertex -7.03955 -44.446 6
    endloop
  endfacet
  facet normal -0.233445 -0.97237 0
    outer loop
      vertex -13.9058 -42.7975 6
      vertex -10 -43.7352 2
      vertex -10 -43.7352 4
    endloop
  endfacet
  facet normal -0.233445 -0.97237 0
    outer loop
      vertex -13.9058 -42.7975 0
      vertex -10 -43.7352 2
      vertex -13.9058 -42.7975 6
    endloop
  endfacet
  facet normal -0.233453 -0.972368 1.6192e-05
    outer loop
      vertex -7.03955 -44.446 0
      vertex -10 -43.7352 2
      vertex -13.9058 -42.7975 0
    endloop
  endfacet
  facet normal -0.233464 -0.972366 0
    outer loop
      vertex -10 -43.7352 2
      vertex -7.03955 -44.446 0
      vertex -7.03955 -44.446 2
    endloop
  endfacet
  facet normal -0.233464 -0.972366 -0
    outer loop
      vertex -7.03955 -44.446 6
      vertex -10 -43.7352 4
      vertex -7.03955 -44.446 4
    endloop
  endfacet
  facet normal -0.923882 0.382678 0
    outer loop
      vertex -42.7975 13.9058 0
      vertex -40.0953 20.4296 6
      vertex -40.0953 20.4296 0
    endloop
  endfacet
  facet normal -0.923882 0.382678 0
    outer loop
      vertex -40.0953 20.4296 6
      vertex -42.7975 13.9058 0
      vertex -42.7975 13.9058 6
    endloop
  endfacet
  facet normal -0.649457 0.760398 0
    outer loop
      vertex 24.7487 -24.7487 3
      vertex 20.5725 -28.3156 6
      vertex 24.7487 -24.7487 6
    endloop
  endfacet
  facet normal -0.649457 0.760398 0
    outer loop
      vertex 20.5725 -28.3156 6
      vertex 24.7487 -24.7487 3
      vertex 20.5725 -28.3156 3
    endloop
  endfacet
  facet normal 0.923877 0.382689 0
    outer loop
      vertex -31.1852 -15.8897 6
      vertex -33.287 -10.8156 3
      vertex -33.287 -10.8156 6
    endloop
  endfacet
  facet normal 0.923877 0.382689 0
    outer loop
      vertex -33.287 -10.8156 3
      vertex -31.1852 -15.8897 6
      vertex -31.1852 -15.8897 3
    endloop
  endfacet
  facet normal 0.996917 -0.0784576 0
    outer loop
      vertex -35 0 6
      vertex -34.5691 5.47521 3
      vertex -34.5691 5.47521 6
    endloop
  endfacet
  facet normal 0.996917 -0.0784576 0
    outer loop
      vertex -34.5691 5.47521 3
      vertex -35 0 6
      vertex -35 0 3
    endloop
  endfacet
  facet normal -0.972371 -0.233443 0
    outer loop
      vertex 34.5691 5.47521 3
      vertex 33.287 10.8156 6
      vertex 33.287 10.8156 3
    endloop
  endfacet
  facet normal -0.972371 -0.233443 0
    outer loop
      vertex 33.287 10.8156 6
      vertex 34.5691 5.47521 3
      vertex 34.5691 5.47521 6
    endloop
  endfacet
  facet normal -0.233443 0.972371 2.94949e-06
    outer loop
      vertex 10.8156 -33.287 6
      vertex 10 -33.4828 4
      vertex 5.47521 -34.5691 6
    endloop
  endfacet
  facet normal -0.233436 0.972372 0
    outer loop
      vertex 10.8156 -33.287 3
      vertex 10 -33.4828 4
      vertex 10.8156 -33.287 6
    endloop
  endfacet
  facet normal -0.233436 0.972372 0
    outer loop
      vertex 10 -33.4828 4
      vertex 10.8156 -33.287 3
      vertex 10 -33.4828 3
    endloop
  endfacet
  facet normal -0.233444 0.97237 0
    outer loop
      vertex 5.47521 -34.5691 6
      vertex 10 -33.4828 4
      vertex 5.47521 -34.5691 4
    endloop
  endfacet
  facet normal -0.760398 -0.649457 0
    outer loop
      vertex 28.3156 20.5725 3
      vertex 24.7487 24.7487 6
      vertex 24.7487 24.7487 3
    endloop
  endfacet
  facet normal -0.760398 -0.649457 0
    outer loop
      vertex 24.7487 24.7487 6
      vertex 28.3156 20.5725 3
      vertex 28.3156 20.5725 6
    endloop
  endfacet
  facet normal -0.760398 0.649457 0
    outer loop
      vertex 24.7487 -24.7487 3
      vertex 28.3156 -20.5725 6
      vertex 28.3156 -20.5725 3
    endloop
  endfacet
  facet normal -0.760398 0.649457 0
    outer loop
      vertex 28.3156 -20.5725 6
      vertex 24.7487 -24.7487 3
      vertex 24.7487 -24.7487 6
    endloop
  endfacet
  facet normal 0.649457 -0.760398 0
    outer loop
      vertex -24.7487 24.7487 3
      vertex -20.5725 28.3156 6
      vertex -24.7487 24.7487 6
    endloop
  endfacet
  facet normal 0.649457 -0.760398 0
    outer loop
      vertex -20.5725 28.3156 6
      vertex -24.7487 24.7487 3
      vertex -20.5725 28.3156 3
    endloop
  endfacet
  facet normal -0.0784576 0.996917 0
    outer loop
      vertex 5.47521 -34.5691 4
      vertex 0 -35 6
      vertex 5.47521 -34.5691 6
    endloop
  endfacet
  facet normal -0.0784576 0.996917 0
    outer loop
      vertex 0 -35 6
      vertex 5.47521 -34.5691 4
      vertex 0 -35 4
    endloop
  endfacet
  facet normal 0.996917 0.0784576 0
    outer loop
      vertex -34.5691 -5.47521 6
      vertex -35 0 3
      vertex -35 0 6
    endloop
  endfacet
  facet normal 0.996917 0.0784576 0
    outer loop
      vertex -35 0 3
      vertex -34.5691 -5.47521 6
      vertex -34.5691 -5.47521 3
    endloop
  endfacet
  facet normal -0.382689 -0.923877 0
    outer loop
      vertex 10.8156 33.287 3
      vertex 15.8897 31.1852 6
      vertex 10.8156 33.287 6
    endloop
  endfacet
  facet normal -0.382689 -0.923877 -0
    outer loop
      vertex 15.8897 31.1852 6
      vertex 10.8156 33.287 3
      vertex 15.8897 31.1852 3
    endloop
  endfacet
  facet normal -0.996917 -0.0784576 0
    outer loop
      vertex 35 0 3
      vertex 34.5691 5.47521 6
      vertex 34.5691 5.47521 3
    endloop
  endfacet
  facet normal -0.996917 -0.0784576 0
    outer loop
      vertex 34.5691 5.47521 6
      vertex 35 0 3
      vertex 35 0 6
    endloop
  endfacet
  facet normal 0.852642 0.522495 0
    outer loop
      vertex -28.3156 -20.5725 6
      vertex -31.1852 -15.8897 3
      vertex -31.1852 -15.8897 6
    endloop
  endfacet
  facet normal 0.852642 0.522495 0
    outer loop
      vertex -31.1852 -15.8897 3
      vertex -28.3156 -20.5725 6
      vertex -28.3156 -20.5725 3
    endloop
  endfacet
  facet normal 0.972371 0.233443 0
    outer loop
      vertex -33.287 -10.8156 6
      vertex -34.5691 -5.47521 3
      vertex -34.5691 -5.47521 6
    endloop
  endfacet
  facet normal 0.972371 0.233443 0
    outer loop
      vertex -34.5691 -5.47521 3
      vertex -33.287 -10.8156 6
      vertex -33.287 -10.8156 3
    endloop
  endfacet
  facet normal -0.522495 -0.852642 0
    outer loop
      vertex 15.8897 31.1852 3
      vertex 20.5725 28.3156 6
      vertex 15.8897 31.1852 6
    endloop
  endfacet
  facet normal -0.522495 -0.852642 -0
    outer loop
      vertex 20.5725 28.3156 6
      vertex 15.8897 31.1852 3
      vertex 20.5725 28.3156 3
    endloop
  endfacet
  facet normal 0.0784576 -0.996917 0
    outer loop
      vertex -5.47521 34.5691 4
      vertex 0 35 6
      vertex -5.47521 34.5691 6
    endloop
  endfacet
  facet normal 0.0784576 -0.996917 0
    outer loop
      vertex 0 35 6
      vertex -5.47521 34.5691 4
      vertex 0 35 4
    endloop
  endfacet
  facet normal -0.923877 -0.382689 0
    outer loop
      vertex 33.287 10.8156 3
      vertex 31.1852 15.8897 6
      vertex 31.1852 15.8897 3
    endloop
  endfacet
  facet normal -0.923877 -0.382689 0
    outer loop
      vertex 31.1852 15.8897 6
      vertex 33.287 10.8156 3
      vertex 33.287 10.8156 6
    endloop
  endfacet
  facet normal -0.852642 0.522495 0
    outer loop
      vertex 28.3156 -20.5725 3
      vertex 31.1852 -15.8897 6
      vertex 31.1852 -15.8897 3
    endloop
  endfacet
  facet normal -0.852642 0.522495 0
    outer loop
      vertex 31.1852 -15.8897 6
      vertex 28.3156 -20.5725 3
      vertex 28.3156 -20.5725 6
    endloop
  endfacet
  facet normal 0.382689 -0.923877 0
    outer loop
      vertex -15.8897 31.1852 3
      vertex -10.8156 33.287 6
      vertex -15.8897 31.1852 6
    endloop
  endfacet
  facet normal 0.382689 -0.923877 0
    outer loop
      vertex -10.8156 33.287 6
      vertex -15.8897 31.1852 3
      vertex -10.8156 33.287 3
    endloop
  endfacet
  facet normal -0.233444 -0.97237 0
    outer loop
      vertex 10 33.4828 4
      vertex 5.47521 34.5691 6
      vertex 5.47521 34.5691 4
    endloop
  endfacet
  facet normal -0.233443 -0.972371 2.94949e-06
    outer loop
      vertex 5.47521 34.5691 6
      vertex 10 33.4828 4
      vertex 10.8156 33.287 6
    endloop
  endfacet
  facet normal -0.233436 -0.972372 0
    outer loop
      vertex 10.8156 33.287 3
      vertex 10 33.4828 4
      vertex 10 33.4828 3
    endloop
  endfacet
  facet normal -0.233436 -0.972372 0
    outer loop
      vertex 10 33.4828 4
      vertex 10.8156 33.287 3
      vertex 10.8156 33.287 6
    endloop
  endfacet
  facet normal 0.233444 0.97237 0
    outer loop
      vertex -10 -33.4828 4
      vertex -5.47521 -34.5691 6
      vertex -5.47521 -34.5691 4
    endloop
  endfacet
  facet normal 0.233443 0.972371 2.94949e-06
    outer loop
      vertex -5.47521 -34.5691 6
      vertex -10 -33.4828 4
      vertex -10.8156 -33.287 6
    endloop
  endfacet
  facet normal 0.233436 0.972372 0
    outer loop
      vertex -10.8156 -33.287 3
      vertex -10 -33.4828 4
      vertex -10 -33.4828 3
    endloop
  endfacet
  facet normal 0.233436 0.972372 0
    outer loop
      vertex -10 -33.4828 4
      vertex -10.8156 -33.287 3
      vertex -10.8156 -33.287 6
    endloop
  endfacet
  facet normal 0.649457 0.760398 -0
    outer loop
      vertex -20.5725 -28.3156 3
      vertex -24.7487 -24.7487 6
      vertex -20.5725 -28.3156 6
    endloop
  endfacet
  facet normal 0.649457 0.760398 0
    outer loop
      vertex -24.7487 -24.7487 6
      vertex -20.5725 -28.3156 3
      vertex -24.7487 -24.7487 3
    endloop
  endfacet
  facet normal -0.852642 -0.522495 0
    outer loop
      vertex 31.1852 15.8897 3
      vertex 28.3156 20.5725 6
      vertex 28.3156 20.5725 3
    endloop
  endfacet
  facet normal -0.852642 -0.522495 0
    outer loop
      vertex 28.3156 20.5725 6
      vertex 31.1852 15.8897 3
      vertex 31.1852 15.8897 6
    endloop
  endfacet
  facet normal -0.649457 -0.760398 0
    outer loop
      vertex 20.5725 28.3156 3
      vertex 24.7487 24.7487 6
      vertex 20.5725 28.3156 6
    endloop
  endfacet
  facet normal -0.649457 -0.760398 -0
    outer loop
      vertex 24.7487 24.7487 6
      vertex 20.5725 28.3156 3
      vertex 24.7487 24.7487 3
    endloop
  endfacet
  facet normal 0.972371 -0.233443 0
    outer loop
      vertex -34.5691 5.47521 6
      vertex -33.287 10.8156 3
      vertex -33.287 10.8156 6
    endloop
  endfacet
  facet normal 0.972371 -0.233443 0
    outer loop
      vertex -33.287 10.8156 3
      vertex -34.5691 5.47521 6
      vertex -34.5691 5.47521 3
    endloop
  endfacet
  facet normal 0.760398 -0.649457 0
    outer loop
      vertex -28.3156 20.5725 6
      vertex -24.7487 24.7487 3
      vertex -24.7487 24.7487 6
    endloop
  endfacet
  facet normal 0.760398 -0.649457 0
    outer loop
      vertex -24.7487 24.7487 3
      vertex -28.3156 20.5725 6
      vertex -28.3156 20.5725 3
    endloop
  endfacet
  facet normal 0.233443 -0.972371 2.94949e-06
    outer loop
      vertex -10.8156 33.287 6
      vertex -10 33.4828 4
      vertex -5.47521 34.5691 6
    endloop
  endfacet
  facet normal 0.233436 -0.972372 0
    outer loop
      vertex -10.8156 33.287 3
      vertex -10 33.4828 4
      vertex -10.8156 33.287 6
    endloop
  endfacet
  facet normal 0.233436 -0.972372 0
    outer loop
      vertex -10 33.4828 4
      vertex -10.8156 33.287 3
      vertex -10 33.4828 3
    endloop
  endfacet
  facet normal 0.233444 -0.97237 0
    outer loop
      vertex -5.47521 34.5691 6
      vertex -10 33.4828 4
      vertex -5.47521 34.5691 4
    endloop
  endfacet
  facet normal -0.382689 0.923877 0
    outer loop
      vertex 15.8897 -31.1852 3
      vertex 10.8156 -33.287 6
      vertex 15.8897 -31.1852 6
    endloop
  endfacet
  facet normal -0.382689 0.923877 0
    outer loop
      vertex 10.8156 -33.287 6
      vertex 15.8897 -31.1852 3
      vertex 10.8156 -33.287 3
    endloop
  endfacet
  facet normal 0.760398 0.649457 0
    outer loop
      vertex -24.7487 -24.7487 6
      vertex -28.3156 -20.5725 3
      vertex -28.3156 -20.5725 6
    endloop
  endfacet
  facet normal 0.760398 0.649457 0
    outer loop
      vertex -28.3156 -20.5725 3
      vertex -24.7487 -24.7487 6
      vertex -24.7487 -24.7487 3
    endloop
  endfacet
  facet normal -0.996917 0.0784576 0
    outer loop
      vertex 34.5691 -5.47521 3
      vertex 35 0 6
      vertex 35 0 3
    endloop
  endfacet
  facet normal -0.996917 0.0784576 0
    outer loop
      vertex 35 0 6
      vertex 34.5691 -5.47521 3
      vertex 34.5691 -5.47521 6
    endloop
  endfacet
  facet normal 0.852642 -0.522495 0
    outer loop
      vertex -31.1852 15.8897 6
      vertex -28.3156 20.5725 3
      vertex -28.3156 20.5725 6
    endloop
  endfacet
  facet normal 0.852642 -0.522495 0
    outer loop
      vertex -28.3156 20.5725 3
      vertex -31.1852 15.8897 6
      vertex -31.1852 15.8897 3
    endloop
  endfacet
  facet normal -0.972371 0.233443 0
    outer loop
      vertex 33.287 -10.8156 3
      vertex 34.5691 -5.47521 6
      vertex 34.5691 -5.47521 3
    endloop
  endfacet
  facet normal -0.972371 0.233443 0
    outer loop
      vertex 34.5691 -5.47521 6
      vertex 33.287 -10.8156 3
      vertex 33.287 -10.8156 6
    endloop
  endfacet
  facet normal 0.522495 0.852642 -0
    outer loop
      vertex -15.8897 -31.1852 3
      vertex -20.5725 -28.3156 6
      vertex -15.8897 -31.1852 6
    endloop
  endfacet
  facet normal 0.522495 0.852642 0
    outer loop
      vertex -20.5725 -28.3156 6
      vertex -15.8897 -31.1852 3
      vertex -20.5725 -28.3156 3
    endloop
  endfacet
  facet normal -0.923877 0.382689 0
    outer loop
      vertex 31.1852 -15.8897 3
      vertex 33.287 -10.8156 6
      vertex 33.287 -10.8156 3
    endloop
  endfacet
  facet normal -0.923877 0.382689 0
    outer loop
      vertex 33.287 -10.8156 6
      vertex 31.1852 -15.8897 3
      vertex 31.1852 -15.8897 6
    endloop
  endfacet
  facet normal -0.0784576 -0.996917 0
    outer loop
      vertex 0 35 4
      vertex 5.47521 34.5691 6
      vertex 0 35 6
    endloop
  endfacet
  facet normal -0.0784576 -0.996917 -0
    outer loop
      vertex 5.47521 34.5691 6
      vertex 0 35 4
      vertex 5.47521 34.5691 4
    endloop
  endfacet
  facet normal 0.382689 0.923877 -0
    outer loop
      vertex -10.8156 -33.287 3
      vertex -15.8897 -31.1852 6
      vertex -10.8156 -33.287 6
    endloop
  endfacet
  facet normal 0.382689 0.923877 0
    outer loop
      vertex -15.8897 -31.1852 6
      vertex -10.8156 -33.287 3
      vertex -15.8897 -31.1852 3
    endloop
  endfacet
  facet normal 0.522495 -0.852642 0
    outer loop
      vertex -20.5725 28.3156 3
      vertex -15.8897 31.1852 6
      vertex -20.5725 28.3156 6
    endloop
  endfacet
  facet normal 0.522495 -0.852642 0
    outer loop
      vertex -15.8897 31.1852 6
      vertex -20.5725 28.3156 3
      vertex -15.8897 31.1852 3
    endloop
  endfacet
  facet normal 0.923877 -0.382689 0
    outer loop
      vertex -33.287 10.8156 6
      vertex -31.1852 15.8897 3
      vertex -31.1852 15.8897 6
    endloop
  endfacet
  facet normal 0.923877 -0.382689 0
    outer loop
      vertex -31.1852 15.8897 3
      vertex -33.287 10.8156 6
      vertex -33.287 10.8156 3
    endloop
  endfacet
  facet normal 0.0784576 0.996917 -0
    outer loop
      vertex 0 -35 4
      vertex -5.47521 -34.5691 6
      vertex 0 -35 6
    endloop
  endfacet
  facet normal 0.0784576 0.996917 0
    outer loop
      vertex -5.47521 -34.5691 6
      vertex 0 -35 4
      vertex -5.47521 -34.5691 4
    endloop
  endfacet
  facet normal -0.522495 0.852642 0
    outer loop
      vertex 20.5725 -28.3156 3
      vertex 15.8897 -31.1852 6
      vertex 20.5725 -28.3156 6
    endloop
  endfacet
  facet normal -0.522495 0.852642 0
    outer loop
      vertex 15.8897 -31.1852 6
      vertex 20.5725 -28.3156 3
      vertex 15.8897 -31.1852 3
    endloop
  endfacet
  facet normal -0 0 1
    outer loop
      vertex -10.8156 33.287 3
      vertex -10 20 3
      vertex -10 33.4828 3
    endloop
  endfacet
  facet normal -0 0 1
    outer loop
      vertex -20.5725 28.3156 3
      vertex -10 20 3
      vertex -15.8897 31.1852 3
    endloop
  endfacet
  facet normal 0 0 1
    outer loop
      vertex -10 20 3
      vertex -10.8156 33.287 3
      vertex -15.8897 31.1852 3
    endloop
  endfacet
  facet normal -0 0 1
    outer loop
      vertex -24.7487 24.7487 3
      vertex -10 20 3
      vertex -20.5725 28.3156 3
    endloop
  endfacet
  facet normal 0 -0 1
    outer loop
      vertex -10.8156 -33.287 3
      vertex -10 -20 3
      vertex -15.8897 -31.1852 3
    endloop
  endfacet
  facet normal 0 0 1
    outer loop
      vertex -10 -20 3
      vertex -10.8156 -33.287 3
      vertex -10 -33.4828 3
    endloop
  endfacet
  facet normal -0 0 1
    outer loop
      vertex -28.3156 20.5725 3
      vertex -10 20 3
      vertex -24.7487 24.7487 3
    endloop
  endfacet
  facet normal 0 0 1
    outer loop
      vertex -10 -20 3
      vertex -20.5725 -28.3156 3
      vertex -15.8897 -31.1852 3
    endloop
  endfacet
  facet normal 0 0 1
    outer loop
      vertex -31.1852 15.8897 3
      vertex -10 20 3
      vertex -28.3156 20.5725 3
    endloop
  endfacet
  facet normal 0 0 1
    outer loop
      vertex -10 -20 3
      vertex -24.7487 -24.7487 3
      vertex -20.5725 -28.3156 3
    endloop
  endfacet
  facet normal 0 0 1
    outer loop
      vertex -33.287 10.8156 3
      vertex -10 20 3
      vertex -31.1852 15.8897 3
    endloop
  endfacet
  facet normal 0 0 1
    outer loop
      vertex -10 -20 3
      vertex -28.3156 -20.5725 3
      vertex -24.7487 -24.7487 3
    endloop
  endfacet
  facet normal 0 0 1
    outer loop
      vertex -34.5691 5.47521 3
      vertex -10 20 3
      vertex -33.287 10.8156 3
    endloop
  endfacet
  facet normal 0 0 1
    outer loop
      vertex -10 -20 3
      vertex -31.1852 -15.8897 3
      vertex -28.3156 -20.5725 3
    endloop
  endfacet
  facet normal 0 0 1
    outer loop
      vertex -35 0 3
      vertex -10 20 3
      vertex -34.5691 5.47521 3
    endloop
  endfacet
  facet normal 0 0 1
    outer loop
      vertex -10 -20 3
      vertex -33.287 -10.8156 3
      vertex -31.1852 -15.8897 3
    endloop
  endfacet
  facet normal 0 0 1
    outer loop
      vertex -10 20 3
      vertex -35 0 3
      vertex -10 -20 3
    endloop
  endfacet
  facet normal 0 0 1
    outer loop
      vertex -10 -20 3
      vertex -34.5691 -5.47521 3
      vertex -33.287 -10.8156 3
    endloop
  endfacet
  facet normal 0 0 1
    outer loop
      vertex -10 -20 3
      vertex -35 0 3
      vertex -34.5691 -5.47521 3
    endloop
  endfacet
  facet normal 0 0 1
    outer loop
      vertex 34.5691 -5.47521 3
      vertex 4.93844 -0.782172 3
      vertex 33.287 -10.8156 3
    endloop
  endfacet
  facet normal 0 0 1
    outer loop
      vertex 33.287 10.8156 3
      vertex 4.93844 0.782172 3
      vertex 5 0 3
    endloop
  endfacet
  facet normal 0 0 1
    outer loop
      vertex 33.287 10.8156 3
      vertex 4.75528 1.54508 3
      vertex 4.93844 0.782172 3
    endloop
  endfacet
  facet normal 0 0 1
    outer loop
      vertex 10 20 3
      vertex 4.45503 2.26995 3
      vertex 4.75528 1.54508 3
    endloop
  endfacet
  facet normal 0 0 1
    outer loop
      vertex 10 20 3
      vertex 4.04508 2.93893 3
      vertex 4.45503 2.26995 3
    endloop
  endfacet
  facet normal 0 0 1
    outer loop
      vertex 10 20 3
      vertex 3.53553 3.53553 3
      vertex 4.04508 2.93893 3
    endloop
  endfacet
  facet normal 0 0 1
    outer loop
      vertex 10 20 3
      vertex 2.93893 4.04508 3
      vertex 3.53553 3.53553 3
    endloop
  endfacet
  facet normal 0 0 1
    outer loop
      vertex 10 20 3
      vertex 2.26995 4.45503 3
      vertex 2.93893 4.04508 3
    endloop
  endfacet
  facet normal 0 0 1
    outer loop
      vertex 10 20 3
      vertex 1.54508 4.75528 3
      vertex 2.26995 4.45503 3
    endloop
  endfacet
  facet normal 0 0 1
    outer loop
      vertex 10 20 3
      vertex 0.782172 4.93844 3
      vertex 1.54508 4.75528 3
    endloop
  endfacet
  facet normal 0 0 1
    outer loop
      vertex 10 20 3
      vertex 0 5 3
      vertex 0.782172 4.93844 3
    endloop
  endfacet
  facet normal -0 0 1
    outer loop
      vertex -10 20 3
      vertex 0 5 3
      vertex 10 20 3
    endloop
  endfacet
  facet normal 0 0 1
    outer loop
      vertex 0 5 3
      vertex -10 20 3
      vertex -0.782172 4.93844 3
    endloop
  endfacet
  facet normal 0 0 1
    outer loop
      vertex -0.782172 4.93844 3
      vertex -10 20 3
      vertex -1.54508 4.75528 3
    endloop
  endfacet
  facet normal 0 0 1
    outer loop
      vertex -1.54508 4.75528 3
      vertex -10 20 3
      vertex -2.26995 4.45503 3
    endloop
  endfacet
  facet normal 0 0 1
    outer loop
      vertex -2.26995 4.45503 3
      vertex -10 20 3
      vertex -2.93893 4.04508 3
    endloop
  endfacet
  facet normal 0 0 1
    outer loop
      vertex -2.93893 4.04508 3
      vertex -10 20 3
      vertex -3.53553 3.53553 3
    endloop
  endfacet
  facet normal 0 0 1
    outer loop
      vertex -4.93844 0.782172 3
      vertex -10 20 3
      vertex -5 0 3
    endloop
  endfacet
  facet normal 0 0 1
    outer loop
      vertex -4.75528 1.54508 3
      vertex -10 20 3
      vertex -4.93844 0.782172 3
    endloop
  endfacet
  facet normal 0 0 1
    outer loop
      vertex -4.45503 2.26995 3
      vertex -10 20 3
      vertex -4.75528 1.54508 3
    endloop
  endfacet
  facet normal 0 0 1
    outer loop
      vertex -4.04508 2.93893 3
      vertex -10 20 3
      vertex -4.45503 2.26995 3
    endloop
  endfacet
  facet normal 0 0 1
    outer loop
      vertex -3.53553 3.53553 3
      vertex -10 20 3
      vertex -4.04508 2.93893 3
    endloop
  endfacet
  facet normal 0 0 1
    outer loop
      vertex 33.287 10.8156 3
      vertex 5 0 3
      vertex 34.5691 5.47521 3
    endloop
  endfacet
  facet normal 0 0 1
    outer loop
      vertex 4.75528 1.54508 3
      vertex 33.287 10.8156 3
      vertex 10 20 3
    endloop
  endfacet
  facet normal 0 0 1
    outer loop
      vertex 34.5691 5.47521 3
      vertex 5 0 3
      vertex 35 0 3
    endloop
  endfacet
  facet normal 0 0 1
    outer loop
      vertex 10 20 3
      vertex 33.287 10.8156 3
      vertex 31.1852 15.8897 3
    endloop
  endfacet
  facet normal -0 0 1
    outer loop
      vertex 5 0 3
      vertex 34.5691 -5.47521 3
      vertex 35 0 3
    endloop
  endfacet
  facet normal -0 0 1
    outer loop
      vertex 10 20 3
      vertex 31.1852 15.8897 3
      vertex 28.3156 20.5725 3
    endloop
  endfacet
  facet normal -0 0 1
    outer loop
      vertex 4.93844 -0.782172 3
      vertex 34.5691 -5.47521 3
      vertex 5 0 3
    endloop
  endfacet
  facet normal 0 0 1
    outer loop
      vertex 10 20 3
      vertex 28.3156 20.5725 3
      vertex 24.7487 24.7487 3
    endloop
  endfacet
  facet normal 0 0 1
    outer loop
      vertex 33.287 -10.8156 3
      vertex 10 -20 3
      vertex 31.1852 -15.8897 3
    endloop
  endfacet
  facet normal 0 0 1
    outer loop
      vertex 10 20 3
      vertex 24.7487 24.7487 3
      vertex 20.5725 28.3156 3
    endloop
  endfacet
  facet normal 0 0 1
    outer loop
      vertex 31.1852 -15.8897 3
      vertex 10 -20 3
      vertex 28.3156 -20.5725 3
    endloop
  endfacet
  facet normal 0 0 1
    outer loop
      vertex 10 20 3
      vertex 20.5725 28.3156 3
      vertex 15.8897 31.1852 3
    endloop
  endfacet
  facet normal 0 0 1
    outer loop
      vertex 28.3156 -20.5725 3
      vertex 10 -20 3
      vertex 24.7487 -24.7487 3
    endloop
  endfacet
  facet normal 0 0 1
    outer loop
      vertex 10 20 3
      vertex 15.8897 31.1852 3
      vertex 10.8156 33.287 3
    endloop
  endfacet
  facet normal 0 0 1
    outer loop
      vertex 24.7487 -24.7487 3
      vertex 10 -20 3
      vertex 20.5725 -28.3156 3
    endloop
  endfacet
  facet normal 0 0 1
    outer loop
      vertex 10 20 3
      vertex 10.8156 33.287 3
      vertex 10 33.4828 3
    endloop
  endfacet
  facet normal 0 0 1
    outer loop
      vertex 20.5725 -28.3156 3
      vertex 10 -20 3
      vertex 15.8897 -31.1852 3
    endloop
  endfacet
  facet normal 0 0 1
    outer loop
      vertex 15.8897 -31.1852 3
      vertex 10 -20 3
      vertex 10.8156 -33.287 3
    endloop
  endfacet
  facet normal 0 0 1
    outer loop
      vertex 10.8156 -33.287 3
      vertex 10 -20 3
      vertex 10 -33.4828 3
    endloop
  endfacet
  facet normal -0 0 1
    outer loop
      vertex 4.75528 -1.54508 3
      vertex 33.287 -10.8156 3
      vertex 4.93844 -0.782172 3
    endloop
  endfacet
  facet normal 0 0 1
    outer loop
      vertex 33.287 -10.8156 3
      vertex 4.75528 -1.54508 3
      vertex 10 -20 3
    endloop
  endfacet
  facet normal -0 0 1
    outer loop
      vertex 4.45503 -2.26995 3
      vertex 10 -20 3
      vertex 4.75528 -1.54508 3
    endloop
  endfacet
  facet normal -0 0 1
    outer loop
      vertex 4.04508 -2.93893 3
      vertex 10 -20 3
      vertex 4.45503 -2.26995 3
    endloop
  endfacet
  facet normal -0 0 1
    outer loop
      vertex 3.53553 -3.53553 3
      vertex 10 -20 3
      vertex 4.04508 -2.93893 3
    endloop
  endfacet
  facet normal -0 0 1
    outer loop
      vertex 2.93893 -4.04508 3
      vertex 10 -20 3
      vertex 3.53553 -3.53553 3
    endloop
  endfacet
  facet normal -0 0 1
    outer loop
      vertex 2.26995 -4.45503 3
      vertex 10 -20 3
      vertex 2.93893 -4.04508 3
    endloop
  endfacet
  facet normal -0 0 1
    outer loop
      vertex 1.54508 -4.75528 3
      vertex 10 -20 3
      vertex 2.26995 -4.45503 3
    endloop
  endfacet
  facet normal -0 0 1
    outer loop
      vertex 0.782172 -4.93844 3
      vertex 10 -20 3
      vertex 1.54508 -4.75528 3
    endloop
  endfacet
  facet normal -0 0 1
    outer loop
      vertex 0 -5 3
      vertex 10 -20 3
      vertex 0.782172 -4.93844 3
    endloop
  endfacet
  facet normal 0 0 1
    outer loop
      vertex -10 -20 3
      vertex 0 -5 3
      vertex -0.782172 -4.93844 3
    endloop
  endfacet
  facet normal 0 0 1
    outer loop
      vertex -10 -20 3
      vertex -0.782172 -4.93844 3
      vertex -1.54508 -4.75528 3
    endloop
  endfacet
  facet normal 0 0 1
    outer loop
      vertex -10 -20 3
      vertex -1.54508 -4.75528 3
      vertex -2.26995 -4.45503 3
    endloop
  endfacet
  facet normal 0 0 1
    outer loop
      vertex -10 -20 3
      vertex -2.26995 -4.45503 3
      vertex -2.93893 -4.04508 3
    endloop
  endfacet
  facet normal 0 0 1
    outer loop
      vertex -10 -20 3
      vertex -2.93893 -4.04508 3
      vertex -3.53553 -3.53553 3
    endloop
  endfacet
  facet normal 0 0 1
    outer loop
      vertex -10 -20 3
      vertex -3.53553 -3.53553 3
      vertex -4.04508 -2.93893 3
    endloop
  endfacet
  facet normal 0 0 1
    outer loop
      vertex -10 -20 3
      vertex -5 0 3
      vertex -10 20 3
    endloop
  endfacet
  facet normal 0 0 1
    outer loop
      vertex -5 0 3
      vertex -10 -20 3
      vertex -4.93844 -0.782172 3
    endloop
  endfacet
  facet normal 0 0 1
    outer loop
      vertex 0 -5 3
      vertex -10 -20 3
      vertex 10 -20 3
    endloop
  endfacet
  facet normal 0 0 1
    outer loop
      vertex -4.45503 -2.26995 3
      vertex -10 -20 3
      vertex -4.04508 -2.93893 3
    endloop
  endfacet
  facet normal 0 0 1
    outer loop
      vertex -4.75528 -1.54508 3
      vertex -10 -20 3
      vertex -4.45503 -2.26995 3
    endloop
  endfacet
  facet normal 0 0 1
    outer loop
      vertex -4.93844 -0.782172 3
      vertex -10 -20 3
      vertex -4.75528 -1.54508 3
    endloop
  endfacet
  facet normal -0.0784613 0.996917 0
    outer loop
      vertex 0.782172 -4.93844 0
      vertex 0 -5 3
      vertex 0.782172 -4.93844 3
    endloop
  endfacet
  facet normal -0.0784613 0.996917 0
    outer loop
      vertex 0 -5 3
      vertex 0.782172 -4.93844 0
      vertex 0 -5 0
    endloop
  endfacet
  facet normal -0.972369 -0.233448 0
    outer loop
      vertex 4.93844 0.782172 0
      vertex 4.75528 1.54508 3
      vertex 4.75528 1.54508 0
    endloop
  endfacet
  facet normal -0.972369 -0.233448 0
    outer loop
      vertex 4.75528 1.54508 3
      vertex 4.93844 0.782172 0
      vertex 4.93844 0.782172 3
    endloop
  endfacet
  facet normal -0.996917 -0.0784613 0
    outer loop
      vertex 5 0 0
      vertex 4.93844 0.782172 3
      vertex 4.93844 0.782172 0
    endloop
  endfacet
  facet normal -0.996917 -0.0784613 0
    outer loop
      vertex 4.93844 0.782172 3
      vertex 5 0 0
      vertex 5 0 3
    endloop
  endfacet
  facet normal -0.92388 -0.382682 0
    outer loop
      vertex 4.75528 1.54508 0
      vertex 4.45503 2.26995 3
      vertex 4.45503 2.26995 0
    endloop
  endfacet
  facet normal -0.92388 -0.382682 0
    outer loop
      vertex 4.45503 2.26995 3
      vertex 4.75528 1.54508 0
      vertex 4.75528 1.54508 3
    endloop
  endfacet
  facet normal 0.522497 0.852641 -0
    outer loop
      vertex -2.26995 -4.45503 0
      vertex -2.93893 -4.04508 3
      vertex -2.26995 -4.45503 3
    endloop
  endfacet
  facet normal 0.522497 0.852641 0
    outer loop
      vertex -2.93893 -4.04508 3
      vertex -2.26995 -4.45503 0
      vertex -2.93893 -4.04508 0
    endloop
  endfacet
  facet normal 0.0784613 -0.996917 0
    outer loop
      vertex -0.782172 4.93844 0
      vertex 0 5 3
      vertex -0.782172 4.93844 3
    endloop
  endfacet
  facet normal 0.0784613 -0.996917 0
    outer loop
      vertex 0 5 3
      vertex -0.782172 4.93844 0
      vertex 0 5 0
    endloop
  endfacet
  facet normal 0.92388 -0.382682 0
    outer loop
      vertex -4.75528 1.54508 3
      vertex -4.45503 2.26995 0
      vertex -4.45503 2.26995 3
    endloop
  endfacet
  facet normal 0.92388 -0.382682 0
    outer loop
      vertex -4.45503 2.26995 0
      vertex -4.75528 1.54508 3
      vertex -4.75528 1.54508 0
    endloop
  endfacet
  facet normal 0.649452 -0.760403 0
    outer loop
      vertex -3.53553 3.53553 0
      vertex -2.93893 4.04508 3
      vertex -3.53553 3.53553 3
    endloop
  endfacet
  facet normal 0.649452 -0.760403 0
    outer loop
      vertex -2.93893 4.04508 3
      vertex -3.53553 3.53553 0
      vertex -2.93893 4.04508 0
    endloop
  endfacet
  facet normal 0.996917 -0.0784613 0
    outer loop
      vertex -5 0 3
      vertex -4.93844 0.782172 0
      vertex -4.93844 0.782172 3
    endloop
  endfacet
  facet normal 0.996917 -0.0784613 0
    outer loop
      vertex -4.93844 0.782172 0
      vertex -5 0 3
      vertex -5 0 0
    endloop
  endfacet
  facet normal 0.972369 -0.233448 0
    outer loop
      vertex -4.93844 0.782172 3
      vertex -4.75528 1.54508 0
      vertex -4.75528 1.54508 3
    endloop
  endfacet
  facet normal 0.972369 -0.233448 0
    outer loop
      vertex -4.75528 1.54508 0
      vertex -4.93844 0.782172 3
      vertex -4.93844 0.782172 0
    endloop
  endfacet
  facet normal -0.233448 0.972369 0
    outer loop
      vertex 1.54508 -4.75528 0
      vertex 0.782172 -4.93844 3
      vertex 1.54508 -4.75528 3
    endloop
  endfacet
  facet normal -0.233448 0.972369 0
    outer loop
      vertex 0.782172 -4.93844 3
      vertex 1.54508 -4.75528 0
      vertex 0.782172 -4.93844 0
    endloop
  endfacet
  facet normal -0.522497 0.852641 0
    outer loop
      vertex 2.93893 -4.04508 0
      vertex 2.26995 -4.45503 3
      vertex 2.93893 -4.04508 3
    endloop
  endfacet
  facet normal -0.522497 0.852641 0
    outer loop
      vertex 2.26995 -4.45503 3
      vertex 2.93893 -4.04508 0
      vertex 2.26995 -4.45503 0
    endloop
  endfacet
  facet normal -0.649452 -0.760403 0
    outer loop
      vertex 2.93893 4.04508 0
      vertex 3.53553 3.53553 3
      vertex 2.93893 4.04508 3
    endloop
  endfacet
  facet normal -0.649452 -0.760403 -0
    outer loop
      vertex 3.53553 3.53553 3
      vertex 2.93893 4.04508 0
      vertex 3.53553 3.53553 0
    endloop
  endfacet
  facet normal 0.972369 0.233448 0
    outer loop
      vertex -4.75528 -1.54508 3
      vertex -4.93844 -0.782172 0
      vertex -4.93844 -0.782172 3
    endloop
  endfacet
  facet normal 0.972369 0.233448 0
    outer loop
      vertex -4.93844 -0.782172 0
      vertex -4.75528 -1.54508 3
      vertex -4.75528 -1.54508 0
    endloop
  endfacet
  facet normal -0.760403 0.649452 0
    outer loop
      vertex 3.53553 -3.53553 0
      vertex 4.04508 -2.93893 3
      vertex 4.04508 -2.93893 0
    endloop
  endfacet
  facet normal -0.760403 0.649452 0
    outer loop
      vertex 4.04508 -2.93893 3
      vertex 3.53553 -3.53553 0
      vertex 3.53553 -3.53553 3
    endloop
  endfacet
  facet normal 0.382682 0.92388 -0
    outer loop
      vertex -1.54508 -4.75528 0
      vertex -2.26995 -4.45503 3
      vertex -1.54508 -4.75528 3
    endloop
  endfacet
  facet normal 0.382682 0.92388 0
    outer loop
      vertex -2.26995 -4.45503 3
      vertex -1.54508 -4.75528 0
      vertex -2.26995 -4.45503 0
    endloop
  endfacet
  facet normal 0.760403 -0.649452 0
    outer loop
      vertex -4.04508 2.93893 3
      vertex -3.53553 3.53553 0
      vertex -3.53553 3.53553 3
    endloop
  endfacet
  facet normal 0.760403 -0.649452 0
    outer loop
      vertex -3.53553 3.53553 0
      vertex -4.04508 2.93893 3
      vertex -4.04508 2.93893 0
    endloop
  endfacet
  facet normal -0.92388 0.382682 0
    outer loop
      vertex 4.45503 -2.26995 0
      vertex 4.75528 -1.54508 3
      vertex 4.75528 -1.54508 0
    endloop
  endfacet
  facet normal -0.92388 0.382682 0
    outer loop
      vertex 4.75528 -1.54508 3
      vertex 4.45503 -2.26995 0
      vertex 4.45503 -2.26995 3
    endloop
  endfacet
  facet normal -0.0784613 -0.996917 0
    outer loop
      vertex 0 5 0
      vertex 0.782172 4.93844 3
      vertex 0 5 3
    endloop
  endfacet
  facet normal -0.0784613 -0.996917 -0
    outer loop
      vertex 0.782172 4.93844 3
      vertex 0 5 0
      vertex 0.782172 4.93844 0
    endloop
  endfacet
  facet normal 0.996917 0.0784613 0
    outer loop
      vertex -4.93844 -0.782172 3
      vertex -5 0 0
      vertex -5 0 3
    endloop
  endfacet
  facet normal 0.996917 0.0784613 0
    outer loop
      vertex -5 0 0
      vertex -4.93844 -0.782172 3
      vertex -4.93844 -0.782172 0
    endloop
  endfacet
  facet normal -0.972369 0.233448 0
    outer loop
      vertex 4.75528 -1.54508 0
      vertex 4.93844 -0.782172 3
      vertex 4.93844 -0.782172 0
    endloop
  endfacet
  facet normal -0.972369 0.233448 0
    outer loop
      vertex 4.93844 -0.782172 3
      vertex 4.75528 -1.54508 0
      vertex 4.75528 -1.54508 3
    endloop
  endfacet
  facet normal -0.649452 0.760403 0
    outer loop
      vertex 3.53553 -3.53553 0
      vertex 2.93893 -4.04508 3
      vertex 3.53553 -3.53553 3
    endloop
  endfacet
  facet normal -0.649452 0.760403 0
    outer loop
      vertex 2.93893 -4.04508 3
      vertex 3.53553 -3.53553 0
      vertex 2.93893 -4.04508 0
    endloop
  endfacet
  facet normal -0.760403 -0.649452 0
    outer loop
      vertex 4.04508 2.93893 0
      vertex 3.53553 3.53553 3
      vertex 3.53553 3.53553 0
    endloop
  endfacet
  facet normal -0.760403 -0.649452 0
    outer loop
      vertex 3.53553 3.53553 3
      vertex 4.04508 2.93893 0
      vertex 4.04508 2.93893 3
    endloop
  endfacet
  facet normal -0.233448 -0.972369 0
    outer loop
      vertex 0.782172 4.93844 0
      vertex 1.54508 4.75528 3
      vertex 0.782172 4.93844 3
    endloop
  endfacet
  facet normal -0.233448 -0.972369 -0
    outer loop
      vertex 1.54508 4.75528 3
      vertex 0.782172 4.93844 0
      vertex 1.54508 4.75528 0
    endloop
  endfacet
  facet normal 0.852641 -0.522497 0
    outer loop
      vertex -4.45503 2.26995 3
      vertex -4.04508 2.93893 0
      vertex -4.04508 2.93893 3
    endloop
  endfacet
  facet normal 0.852641 -0.522497 0
    outer loop
      vertex -4.04508 2.93893 0
      vertex -4.45503 2.26995 3
      vertex -4.45503 2.26995 0
    endloop
  endfacet
  facet normal -0.852641 -0.522497 0
    outer loop
      vertex 4.45503 2.26995 0
      vertex 4.04508 2.93893 3
      vertex 4.04508 2.93893 0
    endloop
  endfacet
  facet normal -0.852641 -0.522497 0
    outer loop
      vertex 4.04508 2.93893 3
      vertex 4.45503 2.26995 0
      vertex 4.45503 2.26995 3
    endloop
  endfacet
  facet normal -0.996917 0.0784613 0
    outer loop
      vertex 4.93844 -0.782172 0
      vertex 5 0 3
      vertex 5 0 0
    endloop
  endfacet
  facet normal -0.996917 0.0784613 0
    outer loop
      vertex 5 0 3
      vertex 4.93844 -0.782172 0
      vertex 4.93844 -0.782172 3
    endloop
  endfacet
  facet normal 0.0784613 0.996917 -0
    outer loop
      vertex 0 -5 0
      vertex -0.782172 -4.93844 3
      vertex 0 -5 3
    endloop
  endfacet
  facet normal 0.0784613 0.996917 0
    outer loop
      vertex -0.782172 -4.93844 3
      vertex 0 -5 0
      vertex -0.782172 -4.93844 0
    endloop
  endfacet
  facet normal 0.233448 -0.972369 0
    outer loop
      vertex -1.54508 4.75528 0
      vertex -0.782172 4.93844 3
      vertex -1.54508 4.75528 3
    endloop
  endfacet
  facet normal 0.233448 -0.972369 0
    outer loop
      vertex -0.782172 4.93844 3
      vertex -1.54508 4.75528 0
      vertex -0.782172 4.93844 0
    endloop
  endfacet
  facet normal -0.522497 -0.852641 0
    outer loop
      vertex 2.26995 4.45503 0
      vertex 2.93893 4.04508 3
      vertex 2.26995 4.45503 3
    endloop
  endfacet
  facet normal -0.522497 -0.852641 -0
    outer loop
      vertex 2.93893 4.04508 3
      vertex 2.26995 4.45503 0
      vertex 2.93893 4.04508 0
    endloop
  endfacet
  facet normal -0.382682 -0.92388 0
    outer loop
      vertex 1.54508 4.75528 0
      vertex 2.26995 4.45503 3
      vertex 1.54508 4.75528 3
    endloop
  endfacet
  facet normal -0.382682 -0.92388 -0
    outer loop
      vertex 2.26995 4.45503 3
      vertex 1.54508 4.75528 0
      vertex 2.26995 4.45503 0
    endloop
  endfacet
  facet normal 0.852641 0.522497 0
    outer loop
      vertex -4.04508 -2.93893 3
      vertex -4.45503 -2.26995 0
      vertex -4.45503 -2.26995 3
    endloop
  endfacet
  facet normal 0.852641 0.522497 0
    outer loop
      vertex -4.45503 -2.26995 0
      vertex -4.04508 -2.93893 3
      vertex -4.04508 -2.93893 0
    endloop
  endfacet
  facet normal 0.522497 -0.852641 0
    outer loop
      vertex -2.93893 4.04508 0
      vertex -2.26995 4.45503 3
      vertex -2.93893 4.04508 3
    endloop
  endfacet
  facet normal 0.522497 -0.852641 0
    outer loop
      vertex -2.26995 4.45503 3
      vertex -2.93893 4.04508 0
      vertex -2.26995 4.45503 0
    endloop
  endfacet
  facet normal -0.382682 0.92388 0
    outer loop
      vertex 2.26995 -4.45503 0
      vertex 1.54508 -4.75528 3
      vertex 2.26995 -4.45503 3
    endloop
  endfacet
  facet normal -0.382682 0.92388 0
    outer loop
      vertex 1.54508 -4.75528 3
      vertex 2.26995 -4.45503 0
      vertex 1.54508 -4.75528 0
    endloop
  endfacet
  facet normal 0.760403 0.649452 0
    outer loop
      vertex -3.53553 -3.53553 3
      vertex -4.04508 -2.93893 0
      vertex -4.04508 -2.93893 3
    endloop
  endfacet
  facet normal 0.760403 0.649452 0
    outer loop
      vertex -4.04508 -2.93893 0
      vertex -3.53553 -3.53553 3
      vertex -3.53553 -3.53553 0
    endloop
  endfacet
  facet normal 0.649452 0.760403 -0
    outer loop
      vertex -2.93893 -4.04508 0
      vertex -3.53553 -3.53553 3
      vertex -2.93893 -4.04508 3
    endloop
  endfacet
  facet normal 0.649452 0.760403 0
    outer loop
      vertex -3.53553 -3.53553 3
      vertex -2.93893 -4.04508 0
      vertex -3.53553 -3.53553 0
    endloop
  endfacet
  facet normal 0.382682 -0.92388 0
    outer loop
      vertex -2.26995 4.45503 0
      vertex -1.54508 4.75528 3
      vertex -2.26995 4.45503 3
    endloop
  endfacet
  facet normal 0.382682 -0.92388 0
    outer loop
      vertex -1.54508 4.75528 3
      vertex -2.26995 4.45503 0
      vertex -1.54508 4.75528 0
    endloop
  endfacet
  facet normal 0.233448 0.972369 -0
    outer loop
      vertex -0.782172 -4.93844 0
      vertex -1.54508 -4.75528 3
      vertex -0.782172 -4.93844 3
    endloop
  endfacet
  facet normal 0.233448 0.972369 0
    outer loop
      vertex -1.54508 -4.75528 3
      vertex -0.782172 -4.93844 0
      vertex -1.54508 -4.75528 0
    endloop
  endfacet
  facet normal -0.852641 0.522497 0
    outer loop
      vertex 4.04508 -2.93893 0
      vertex 4.45503 -2.26995 3
      vertex 4.45503 -2.26995 0
    endloop
  endfacet
  facet normal -0.852641 0.522497 0
    outer loop
      vertex 4.45503 -2.26995 3
      vertex 4.04508 -2.93893 0
      vertex 4.04508 -2.93893 3
    endloop
  endfacet
  facet normal 0.92388 0.382682 0
    outer loop
      vertex -4.45503 -2.26995 3
      vertex -4.75528 -1.54508 0
      vertex -4.75528 -1.54508 3
    endloop
  endfacet
  facet normal 0.92388 0.382682 0
    outer loop
      vertex -4.75528 -1.54508 0
      vertex -4.45503 -2.26995 3
      vertex -4.45503 -2.26995 0
    endloop
  endfacet
  facet normal -1 0 0
    outer loop
      vertex 10 43.7352 2
      vertex 10 33.4828 3
      vertex 10 43.7352 4
    endloop
  endfacet
  facet normal -1 0 0
    outer loop
      vertex 10 20 2
      vertex 10 33.4828 3
      vertex 10 43.7352 2
    endloop
  endfacet
  facet normal -1 -0 0
    outer loop
      vertex 10 33.4828 3
      vertex 10 20 2
      vertex 10 20 3
    endloop
  endfacet
  facet normal -1 -0 0
    outer loop
      vertex 10 43.7352 4
      vertex 10 33.4828 3
      vertex 10 33.4828 4
    endloop
  endfacet
  facet normal 0 0 -1
    outer loop
      vertex 5.47521 34.5691 4
      vertex 10 43.7352 4
      vertex 10 33.4828 4
    endloop
  endfacet
  facet normal -0 0 -1
    outer loop
      vertex 10 43.7352 4
      vertex 5.47521 34.5691 4
      vertex 7.03955 44.446 4
    endloop
  endfacet
  facet normal 0 0 -1
    outer loop
      vertex 0 35 4
      vertex 7.03955 44.446 4
      vertex 5.47521 34.5691 4
    endloop
  endfacet
  facet normal 0 0 -1
    outer loop
      vertex 0 35 4
      vertex 0 45 4
      vertex 7.03955 44.446 4
    endloop
  endfacet
  facet normal 0 0 -1
    outer loop
      vertex -5.47521 34.5691 4
      vertex 0 45 4
      vertex 0 35 4
    endloop
  endfacet
  facet normal 0 0 -1
    outer loop
      vertex -5.47521 34.5691 4
      vertex -7.03955 44.446 4
      vertex 0 45 4
    endloop
  endfacet
  facet normal 0 0 -1
    outer loop
      vertex -10 43.7352 4
      vertex -5.47521 34.5691 4
      vertex -10 33.4828 4
    endloop
  endfacet
  facet normal 0 0 -1
    outer loop
      vertex -5.47521 34.5691 4
      vertex -10 43.7352 4
      vertex -7.03955 44.446 4
    endloop
  endfacet
  facet normal 0 0 1
    outer loop
      vertex 7.03955 44.446 2
      vertex 10 20 2
      vertex 10 43.7352 2
    endloop
  endfacet
  facet normal 0 0 1
    outer loop
      vertex 0 45 2
      vertex 10 20 2
      vertex 7.03955 44.446 2
    endloop
  endfacet
  facet normal 0 0 1
    outer loop
      vertex -10 20 2
      vertex 0 45 2
      vertex -7.03955 44.446 2
    endloop
  endfacet
  facet normal 0 0 1
    outer loop
      vertex -10 20 2
      vertex -7.03955 44.446 2
      vertex -10 43.7352 2
    endloop
  endfacet
  facet normal 0 0 1
    outer loop
      vertex 0 45 2
      vertex -10 20 2
      vertex 10 20 2
    endloop
  endfacet
  facet normal 1 0 0
    outer loop
      vertex -10 33.4828 3
      vertex -10 43.7352 4
      vertex -10 33.4828 4
    endloop
  endfacet
  facet normal 1 0 0
    outer loop
      vertex -10 43.7352 4
      vertex -10 33.4828 3
      vertex -10 43.7352 2
    endloop
  endfacet
  facet normal 1 0 0
    outer loop
      vertex -10 20 2
      vertex -10 33.4828 3
      vertex -10 20 3
    endloop
  endfacet
  facet normal 1 0 0
    outer loop
      vertex -10 33.4828 3
      vertex -10 20 2
      vertex -10 43.7352 2
    endloop
  endfacet
  facet normal 0 1 -0
    outer loop
      vertex 10 20 2
      vertex -10 20 3
      vertex 10 20 3
    endloop
  endfacet
  facet normal 0 1 0
    outer loop
      vertex -10 20 3
      vertex 10 20 2
      vertex -10 20 2
    endloop
  endfacet
  facet normal -1 0 0
    outer loop
      vertex 10 -20 2
      vertex 10 -33.4828 3
      vertex 10 -20 3
    endloop
  endfacet
  facet normal -1 0 0
    outer loop
      vertex 10 -43.7352 2
      vertex 10 -33.4828 3
      vertex 10 -20 2
    endloop
  endfacet
  facet normal -1 0 0
    outer loop
      vertex 10 -43.7352 4
      vertex 10 -33.4828 3
      vertex 10 -43.7352 2
    endloop
  endfacet
  facet normal -1 0 0
    outer loop
      vertex 10 -33.4828 3
      vertex 10 -43.7352 4
      vertex 10 -33.4828 4
    endloop
  endfacet
  facet normal 0 0 -1
    outer loop
      vertex 5.47521 -34.5691 4
      vertex 10 -43.7352 4
      vertex 7.03955 -44.446 4
    endloop
  endfacet
  facet normal 0 0 -1
    outer loop
      vertex 10 -43.7352 4
      vertex 5.47521 -34.5691 4
      vertex 10 -33.4828 4
    endloop
  endfacet
  facet normal 0 0 -1
    outer loop
      vertex 0 -45 4
      vertex 5.47521 -34.5691 4
      vertex 7.03955 -44.446 4
    endloop
  endfacet
  facet normal 0 0 -1
    outer loop
      vertex 0 -45 4
      vertex 0 -35 4
      vertex 5.47521 -34.5691 4
    endloop
  endfacet
  facet normal 0 0 -1
    outer loop
      vertex 0 -45 4
      vertex -5.47521 -34.5691 4
      vertex 0 -35 4
    endloop
  endfacet
  facet normal 0 0 -1
    outer loop
      vertex -7.03955 -44.446 4
      vertex -5.47521 -34.5691 4
      vertex 0 -45 4
    endloop
  endfacet
  facet normal 0 0 -1
    outer loop
      vertex -10 -43.7352 4
      vertex -5.47521 -34.5691 4
      vertex -7.03955 -44.446 4
    endloop
  endfacet
  facet normal -0 0 -1
    outer loop
      vertex -5.47521 -34.5691 4
      vertex -10 -43.7352 4
      vertex -10 -33.4828 4
    endloop
  endfacet
  facet normal 0 0 1
    outer loop
      vertex 10 -20 2
      vertex 7.03955 -44.446 2
      vertex 10 -43.7352 2
    endloop
  endfacet
  facet normal 0 0 1
    outer loop
      vertex 10 -20 2
      vertex 0 -45 2
      vertex 7.03955 -44.446 2
    endloop
  endfacet
  facet normal -0 0 1
    outer loop
      vertex -10 -20 2
      vertex 0 -45 2
      vertex 10 -20 2
    endloop
  endfacet
  facet normal 0 0 1
    outer loop
      vertex 0 -45 2
      vertex -10 -20 2
      vertex -7.03955 -44.446 2
    endloop
  endfacet
  facet normal 0 0 1
    outer loop
      vertex -7.03955 -44.446 2
      vertex -10 -20 2
      vertex -10 -43.7352 2
    endloop
  endfacet
  facet normal 1 0 0
    outer loop
      vertex -10 -33.4828 4
      vertex -10 -43.7352 4
      vertex -10 -33.4828 3
    endloop
  endfacet
  facet normal 1 -0 0
    outer loop
      vertex -10 -33.4828 3
      vertex -10 -20 2
      vertex -10 -20 3
    endloop
  endfacet
  facet normal 1 0 0
    outer loop
      vertex -10 -33.4828 3
      vertex -10 -43.7352 2
      vertex -10 -20 2
    endloop
  endfacet
  facet normal 1 0 0
    outer loop
      vertex -10 -43.7352 2
      vertex -10 -33.4828 3
      vertex -10 -43.7352 4
    endloop
  endfacet
  facet normal 0 -1 0
    outer loop
      vertex -10 -20 2
      vertex 10 -20 3
      vertex -10 -20 3
    endloop
  endfacet
  facet normal 0 -1 -0
    outer loop
      vertex 10 -20 3
      vertex -10 -20 2
      vertex 10 -20 2
    endloop
  endfacet
endsolid OpenSCAD_Model
